<?xml version="1.0" standalone="no"?>
<!DOCTYPE svg PUBLIC "-//W3C//DTD SVG 20010904//EN"
 "http://www.w3.org/TR/2001/REC-SVG-20010904/DTD/svg10.dtd">
<svg version="1.0" xmlns="http://www.w3.org/2000/svg"
 width="1300.000000pt" height="764.000000pt" viewBox="0 0 1300.000000 764.000000"
 preserveAspectRatio="xMidYMid meet">

<g transform="translate(0.000000,764.000000) scale(0.100000,-0.100000)"
fill="#000000" stroke="none">
<path d="M3380 5571 c55 -24 54 -25 -43 -6 -77 15 -196 21 -185 9 3 -3 49 -14
101 -25 53 -10 106 -24 119 -29 23 -10 23 -11 -2 -5 -110 24 -248 34 -352 25
-61 -5 -113 -12 -116 -15 -3 -3 33 -6 79 -6 l84 -1 -125 -13 c-167 -16 -430
-90 -285 -80 l60 5 -60 -13 c-100 -22 -180 -50 -161 -57 12 -4 -3 -12 -46 -25
-62 -19 -63 -20 -28 -25 l35 -6 -47 -8 c-26 -4 -54 -13 -61 -20 -7 -7 -30 -18
-52 -23 l-40 -11 35 -2 c31 -1 28 -3 -22 -14 -32 -7 -60 -14 -62 -17 -2 -2 57
-3 132 -2 148 2 135 -7 -38 -26 -52 -6 -115 -17 -140 -26 l-45 -15 78 6 c42 2
77 3 77 0 0 -2 -42 -11 -92 -21 -51 -9 -97 -22 -103 -29 -5 -6 -44 -24 -85
-39 -41 -15 -84 -35 -95 -43 l-20 -16 20 6 c47 13 191 46 204 46 31 0 0 -12
-66 -26 -78 -16 -207 -54 -202 -59 2 -1 29 1 59 6 78 13 313 39 317 35 6 -5
-71 -25 -142 -36 -164 -26 -346 -79 -400 -118 l-20 -14 20 6 c74 21 157 36
195 35 59 -1 38 -9 -103 -42 -109 -26 -216 -69 -264 -107 -30 -24 -23 -26 17
-5 31 16 281 87 287 81 10 -10 -33 -27 -112 -45 -50 -10 -115 -29 -145 -41
-59 -23 -163 -80 -158 -86 2 -2 44 10 93 25 186 60 255 79 250 71 -3 -5 -22
-12 -43 -16 -20 -4 -31 -9 -23 -12 8 -3 -33 -20 -90 -39 -57 -18 -151 -56
-209 -84 -104 -49 -230 -127 -230 -142 0 -4 26 6 58 22 31 15 156 72 277 126
121 53 226 102 233 108 13 10 212 41 219 33 2 -1 -23 -8 -54 -15 -67 -14 -231
-67 -253 -81 -20 -13 -15 -12 50 5 30 8 60 14 65 14 17 -1 -64 -29 -187 -64
-65 -18 -125 -39 -135 -45 -17 -10 -16 -11 2 -6 11 2 43 7 70 10 38 5 23 -2
-65 -30 -149 -46 -292 -106 -357 -149 -29 -20 -53 -37 -53 -39 0 -2 32 9 70
25 89 38 523 190 527 185 2 -2 -23 -13 -54 -24 -60 -22 -120 -59 -78 -48 11 3
108 26 215 51 107 25 204 49 215 54 46 21 -125 6 -260 -24 -29 -6 -29 -6 4 10
19 8 122 30 230 48 l196 32 -85 5 -85 5 234 40 c182 31 226 41 195 46 -32 4
-22 7 51 14 86 8 89 9 60 21 -29 13 -28 13 30 14 97 2 35 18 -80 21 l-100 2
90 8 c50 4 131 8 180 9 103 2 101 6 -5 20 -74 9 -73 9 25 4 55 -3 111 -8 125
-10 20 -5 22 -3 10 5 -13 10 -13 11 0 11 8 0 32 -4 52 -9 21 -5 36 -5 33 -1
-7 11 -117 47 -196 65 l-64 13 66 1 c58 1 111 -11 254 -56 17 -5 18 -4 7 10
-11 13 -10 15 7 10 12 -3 28 0 36 7 13 11 14 10 10 -1 -4 -10 2 -15 17 -16 13
-1 39 -4 58 -7 l35 -5 -35 14 -35 15 35 -5 c35 -5 35 -4 10 10 -37 21 -8 18
118 -14 61 -16 112 -27 112 -25 0 2 -30 19 -67 38 -132 66 -248 129 -228 123
61 -17 213 -81 281 -118 43 -24 73 -35 65 -26 -17 22 -18 22 69 -8 88 -30 94
-31 56 -6 -25 17 -26 20 -10 23 11 3 35 -3 54 -12 19 -10 40 -15 47 -13 6 2
25 -3 42 -12 17 -8 31 -14 31 -12 0 8 -127 93 -209 140 -47 27 -75 46 -61 42
32 -9 172 -84 275 -147 89 -55 76 -31 -25 44 -104 79 -88 73 80 -29 99 -60
103 -61 60 -23 -25 23 -64 55 -87 71 -43 30 -56 46 -28 35 9 -3 69 -44 135
-91 66 -47 120 -81 120 -76 0 5 -33 39 -72 75 -56 50 -68 65 -52 66 12 0 52
-30 97 -72 43 -40 77 -71 77 -69 0 2 -15 24 -33 50 -53 74 -55 79 -27 60 14
-9 47 -45 74 -80 53 -69 56 -49 6 34 -16 26 -27 47 -25 47 2 0 36 -33 76 -72
71 -73 71 -73 38 -23 -18 28 -66 91 -107 140 l-74 90 68 -75 c38 -41 100 -106
137 -145 82 -83 70 -54 -36 88 l-68 92 73 -80 c40 -44 95 -102 121 -130 l49
-50 -37 60 c-21 33 -44 69 -53 80 -22 28 44 -40 101 -105 l48 -55 -22 45 c-12
25 -31 58 -41 73 -42 59 -8 34 58 -42 37 -44 70 -79 71 -77 5 5 -94 153 -141
211 -28 35 -32 42 -12 25 16 -14 64 -70 108 -125 44 -55 85 -104 90 -110 15
-15 -30 73 -64 125 l-29 45 43 -50 c23 -27 65 -72 91 -100 l49 -50 -28 50
c-38 68 -132 191 -185 241 -24 23 -69 58 -99 78 -68 44 -90 61 -90 70 0 4 29
-13 64 -38 35 -26 67 -46 72 -46 11 0 123 -121 244 -266 51 -60 95 -111 98
-114 16 -15 -69 129 -101 172 -58 77 -38 67 31 -14 33 -40 84 -98 112 -128 52
-55 52 -55 31 -15 l-21 40 35 -40 c19 -22 35 -36 35 -32 0 11 -65 111 -118
182 -32 42 -37 52 -18 35 16 -14 59 -72 97 -130 38 -58 69 -99 69 -91 0 7 -18
51 -39 97 -22 46 -38 84 -37 84 2 0 25 -36 52 -80 27 -44 50 -76 52 -71 2 6
-2 20 -8 31 -23 43 -2 30 25 -15 48 -82 40 -38 -13 71 -29 58 -52 108 -52 112
0 3 11 -5 24 -17 20 -19 39 -55 111 -216 l13 -30 -5 40 c-3 22 -12 57 -20 79
-19 57 -16 63 16 32 16 -16 39 -56 52 -90 35 -95 48 -97 22 -3 -10 39 36 -7
53 -52 16 -42 18 -43 26 -22 5 15 4 28 -2 36 -6 7 -19 43 -29 81 -10 38 -22
78 -25 89 -5 13 3 8 21 -14 18 -22 35 -62 50 -120 22 -86 22 -86 17 -26 -6 57
-5 59 11 38 9 -13 19 -46 22 -74 5 -46 7 -49 18 -30 6 12 15 18 20 14 4 -4 5
1 0 12 -8 21 -25 178 -20 183 2 2 11 -32 20 -75 9 -43 23 -98 31 -123 l13 -45
-3 73 c-4 81 1 83 26 14 l16 -47 2 35 c2 32 4 29 26 -35 l24 -70 -4 85 -3 85
28 -85 29 -85 -6 70 c-3 39 -7 93 -9 120 -3 60 -50 185 -102 274 -38 64 -169
213 -205 232 -11 6 2 -16 28 -48 71 -87 140 -197 164 -260 33 -89 16 -72 -35
34 -60 125 -118 206 -202 282 -57 51 -183 131 -208 131 -4 0 20 -21 54 -46
122 -92 269 -257 348 -391 25 -44 69 -201 58 -211 -3 -3 -5 1 -5 9 0 8 -10 34
-22 59 -12 25 -22 50 -23 55 -5 38 -89 188 -129 230 -51 53 -50 50 13 -55 11
-19 21 -39 21 -44 0 -18 -34 20 -48 54 -45 110 -191 271 -308 343 -61 37 -202
97 -226 97 -7 0 23 -20 67 -43 93 -48 187 -114 262 -181 52 -47 153 -172 153
-191 0 -5 -30 24 -67 65 -211 233 -373 331 -608 367 -25 4 -22 0 20 -22 28
-14 41 -23 30 -19 -199 63 -204 58 -27 -31 82 -41 188 -97 236 -124 88 -51
112 -54 54 -6 -18 15 -24 22 -13 16 11 -6 43 -31 70 -55 49 -44 49 -45 18 -36
-18 5 -45 17 -60 28 -30 21 -108 62 -119 62 -3 0 16 -20 43 -45 66 -61 48 -57
-24 5 -112 98 -255 181 -398 228 -70 23 -249 73 -244 68 2 -3 63 -34 134 -69
72 -36 139 -73 150 -82 11 -9 -31 9 -92 40 -62 30 -113 53 -113 51 0 -3 -28 8
-62 24 -96 43 -196 71 -268 75 -36 1 -87 6 -115 9 l-50 6 45 -19z m-95 -81
l40 -8 -45 0 c-25 -1 -83 5 -130 13 l-85 15 90 -6 c50 -3 108 -9 130 -14z
m495 -38 c25 -10 61 -30 81 -43 20 -13 45 -29 55 -36 12 -8 2 -6 -25 3 -24 8
-49 18 -55 23 -6 5 -51 30 -101 55 -49 26 -91 49 -94 52 -6 6 63 -21 139 -54z
m-243 12 c75 -30 106 -50 58 -38 -30 7 -147 63 -133 64 4 0 38 -12 75 -26z
m-342 -14 l20 -9 -20 -1 c-12 -1 -5 -7 20 -15 48 -16 36 -18 -20 -5 -22 6
-139 11 -260 11 -187 1 -209 3 -145 11 41 5 145 7 230 5 85 -2 146 -1 135 4
l-20 8 20 0 c11 0 29 -4 40 -9z m511 -31 c8 -13 -21 1 -51 26 -19 15 -18 15
12 1 17 -9 35 -21 39 -27z m-531 -39 c34 -4 -3 -5 -85 -2 -80 3 -156 9 -170
13 -28 8 164 0 255 -11z m-442 3 c-13 -2 -33 -2 -45 0 -13 2 -3 4 22 4 25 0
35 -2 23 -4z m767 -3 c8 -5 11 -10 5 -10 -5 0 -17 5 -25 10 -8 5 -10 10 -5 10
6 0 17 -5 25 -10z m-887 -7 c-7 -2 -19 -2 -25 0 -7 3 -2 5 12 5 14 0 19 -2 13
-5z m1167 -63 c107 -80 121 -93 65 -60 -22 13 -44 30 -50 36 -5 7 -37 31 -69
53 -33 23 -55 41 -49 41 5 0 51 -31 103 -70z m-1233 54 c-3 -3 -12 -4 -19 -1
-8 3 -5 6 6 6 11 1 17 -2 13 -5z m399 -9 c84 -16 115 -31 46 -22 -28 3 -40 2
-35 -6 4 -7 -15 -8 -63 -4 -38 4 -89 7 -114 8 l-45 1 40 9 c22 4 58 9 80 9 35
2 37 3 15 10 -41 13 -7 11 76 -5z m1300 -52 c-3 -4 -2 -11 2 -18 4 -6 0 -3
-10 7 -9 10 -20 18 -26 18 -5 0 -17 10 -28 21 l-19 22 43 -22 c24 -12 41 -25
38 -28z m-533 17 c43 -19 69 -40 50 -40 -10 0 -111 60 -102 60 4 0 27 -9 52
-20z m-1125 3 c-10 -2 -28 -2 -40 0 -13 2 -5 4 17 4 22 1 32 -1 23 -4z m-80
-10 c-10 -2 -26 -2 -35 0 -10 3 -2 5 17 5 19 0 27 -2 18 -5z m795 0 c-7 -2
-19 -2 -25 0 -7 3 -2 5 12 5 14 0 19 -2 13 -5z m277 -18 c14 -8 21 -14 15 -14
-5 0 -21 6 -35 14 -14 8 -20 14 -15 14 6 0 21 -6 35 -14z m-872 -12 c-21 -2
-55 -2 -75 0 -21 2 -4 4 37 4 41 0 58 -2 38 -4z m-321 -9 c-3 -3 -12 -4 -19
-1 -8 3 -5 6 6 6 11 1 17 -2 13 -5z m672 -10 c2 -2 -47 -3 -110 -3 -79 1 -103
4 -79 9 32 7 180 2 189 -6z m271 -4 c0 -12 -8 -12 -35 0 -18 8 -17 9 8 9 15 1
27 -3 27 -9z m155 -10 c-11 -5 -15 -9 -10 -9 6 -1 3 -6 -5 -12 -12 -8 -11 -9
5 -5 11 3 27 1 35 -4 11 -7 8 -10 -15 -10 -16 0 -37 5 -45 10 -11 7 -11 10 -2
10 7 0 11 4 8 9 -7 10 10 19 34 20 9 0 8 -4 -5 -9z m80 -20 c22 -10 33 -19 25
-19 -8 0 -31 8 -50 19 -45 24 -28 24 25 0z m112 4 c36 -6 173 -69 173 -79 0
-5 -90 29 -122 46 -11 6 -26 8 -34 5 -9 -3 -32 6 -52 20 -20 15 -29 24 -20 21
9 -3 34 -9 55 -13z m507 -62 c-5 -7 -40 22 -64 52 -21 27 -19 26 21 -9 25 -22
44 -41 43 -43z m456 12 c38 -38 54 -60 39 -53 -35 20 -125 119 -106 119 1 0
32 -30 67 -66z m-1611 40 c8 -7 -213 -2 -244 6 -16 4 31 6 105 3 74 -2 137 -6
139 -9z m1383 -166 c32 -43 55 -78 50 -78 -5 0 -34 35 -65 78 -31 42 -75 100
-98 127 l-41 50 47 -50 c26 -27 74 -85 107 -127z m-1297 152 c28 -7 28 -8 -12
-9 -23 0 -45 4 -48 9 -7 11 16 11 60 0z m1250 -17 c11 -7 20 -17 20 -21 0 -4
31 -36 69 -72 81 -77 152 -160 137 -160 -5 0 -35 32 -66 70 -31 39 -80 88
-108 110 -29 22 -64 49 -79 60 -49 38 -26 49 27 13z m-1625 7 c13 -9 13 -10 0
-11 -50 -3 -136 4 -144 12 -13 12 124 12 144 -1z m1150 -46 c30 -31 48 -53 38
-48 -15 8 -104 104 -96 104 2 0 28 -25 58 -56z m-505 27 l40 -19 -40 5 c-22 3
-51 12 -65 19 l-25 13 25 0 c14 0 43 -8 65 -18z m-425 -6 l45 -15 -50 6 c-54
7 -96 23 -60 24 11 0 40 -7 65 -15z m681 -47 c33 -27 31 -27 -36 8 -86 44
-105 60 -44 38 26 -10 62 -30 80 -46z m855 36 c19 -9 32 -19 30 -23 -3 -4 16
-27 41 -51 42 -42 163 -214 163 -233 0 -12 -39 17 -56 42 -9 12 -17 30 -19 41
-6 29 -97 141 -158 195 -55 48 -55 55 -1 29z m-1896 -12 c-37 -3 -41 -6 -25
-13 14 -7 7 -8 -23 -4 -33 4 -42 3 -36 -7 6 -10 4 -11 -7 0 -7 6 -36 12 -63
12 -37 0 -47 3 -36 10 8 5 65 9 125 8 61 -1 90 -3 65 -6z m198 -8 c18 -8 32
-17 32 -18 0 -2 -20 1 -45 7 -30 7 -41 13 -33 19 7 4 13 8 14 8 0 0 15 -7 32
-16z m612 1 c17 -9 30 -18 30 -21 0 -4 -59 23 -69 32 -10 9 13 3 39 -11z m850
-91 c0 -12 -39 19 -80 62 l-45 48 63 -53 c34 -29 62 -55 62 -57z m-1390 86
c18 -12 2 -12 -25 0 -13 6 -15 9 -5 9 8 0 22 -4 30 -9z m931 -26 c13 -16 12
-16 -18 0 -18 9 -33 21 -33 27 0 13 32 -4 51 -27z m-486 5 c5 -5 -6 -4 -25 2
-45 15 -54 24 -15 15 17 -4 34 -12 40 -17z m-565 -18 c41 -11 64 -19 50 -20
-14 0 -54 8 -90 19 -84 24 -57 25 40 1z m-382 0 c8 -5 -5 -8 -34 -10 -26 0
-49 -3 -51 -4 -1 -2 65 -14 147 -26 83 -13 153 -28 156 -33 3 -5 13 -7 21 -4
8 3 11 1 8 -4 -3 -6 4 -14 17 -19 13 -6 50 -22 83 -36 56 -25 58 -26 20 -20
-57 9 -105 25 -105 36 0 5 -6 9 -14 9 -8 0 -21 6 -29 14 -15 15 -260 66 -315
66 -46 0 -39 15 11 27 55 14 69 14 85 4z m1030 -20 c31 -16 66 -37 77 -45 l20
-16 -20 6 c-42 13 -105 44 -105 53 0 4 -10 13 -22 19 -13 6 -19 11 -15 11 4 1
33 -12 65 -28z m498 7 l19 -21 -27 18 c-29 18 -34 25 -20 25 5 0 17 -10 28
-22z m813 -47 c26 -36 43 -81 32 -81 -13 0 -58 39 -45 40 5 0 15 -5 22 -12 31
-31 7 7 -40 64 -44 53 -47 59 -21 40 18 -13 41 -36 52 -51z m-2221 52 c-15 -2
-42 -2 -60 0 -18 2 -6 4 27 4 33 0 48 -2 33 -4z m151 -7 c-2 -1 -18 -8 -35
-13 -23 -8 -35 -7 -49 3 -17 13 -13 14 35 14 29 0 51 -2 49 -4z m531 -6 c8 -5
11 -10 5 -10 -5 0 -17 5 -25 10 -8 5 -10 10 -5 10 6 0 17 -5 25 -10z m801 -17
l24 -26 -32 23 c-34 25 -39 30 -25 30 5 0 19 -12 33 -27z m-1771 -7 c0 -2 -9
-6 -20 -9 -11 -3 -18 -1 -14 4 5 9 34 13 34 5z m1560 -79 c23 -21 39 -41 36
-44 -3 -3 -25 12 -48 33 -24 22 -59 52 -78 68 l-35 28 41 -23 c23 -13 61 -41
84 -62z m-955 33 c55 -17 102 -34 105 -37 2 -2 -20 -1 -50 3 -30 4 -83 22
-120 41 -73 38 -73 38 65 -7z m320 3 c11 -7 16 -13 12 -13 -11 0 -67 29 -67
35 0 6 32 -6 55 -22z m-727 -10 c-21 -2 -57 -2 -80 0 -24 2 -7 4 37 4 44 0 63
-2 43 -4z m997 -104 c24 -23 -144 59 -175 85 -27 21 -12 16 65 -24 55 -29 104
-57 110 -61z m281 78 c4 -3 -8 -2 -26 3 -19 5 -38 14 -43 19 -5 5 7 4 27 -3
19 -7 39 -15 42 -19z m-1371 2 c17 -1 -1 -5 -40 -9 -38 -3 -72 -5 -74 -3 -9 6
46 22 64 18 11 -3 34 -5 50 -6z m2470 -80 c8 -15 26 -58 39 -95 30 -83 8 -64
-29 25 -15 35 -34 75 -42 88 -14 21 -14 23 1 17 9 -4 23 -19 31 -35z m-2527
24 c-26 -2 -71 -2 -100 0 -29 2 -8 3 47 3 55 0 79 -1 53 -3z m2622 -48 c0 -5
-5 -3 -10 5 -5 8 -10 20 -10 25 0 6 5 3 10 -5 5 -8 10 -19 10 -25z m70 -52 c7
-30 10 -57 7 -59 -6 -6 -32 60 -42 106 -7 31 -6 33 8 22 9 -8 21 -38 27 -69z
m-2660 20 c-101 -7 -262 -37 -370 -68 -63 -18 -126 -35 -139 -38 -36 -9 -11 9
33 23 28 9 35 15 25 21 -8 5 -11 9 -8 9 4 0 44 7 90 16 119 23 284 42 354 41
47 0 50 -1 15 -4z"/>
<path d="M3667 5219 c7 -7 15 -10 18 -7 3 3 -2 9 -12 12 -14 6 -15 5 -6 -5z"/>
<path d="M9597 5584 c-3 -3 -39 -7 -79 -9 -83 -3 -161 -23 -261 -67 -38 -16
-76 -31 -85 -33 -10 -2 -55 -22 -101 -45 -46 -22 -85 -39 -88 -36 -2 2 57 34
131 72 75 37 136 68 136 70 0 8 -235 -61 -313 -93 -125 -51 -232 -117 -331
-203 -32 -28 -61 -49 -63 -46 -5 5 28 36 76 73 29 23 -4 13 -58 -17 -30 -17
-56 -28 -58 -26 -5 5 247 143 360 197 48 23 86 44 83 46 -6 6 -126 -26 -158
-43 -15 -8 -31 -14 -35 -13 -4 0 19 14 52 31 64 31 60 32 -60 8 -78 -15 -222
-85 -307 -150 -37 -28 -114 -100 -171 -160 -57 -61 -108 -110 -111 -110 -12 0
85 122 144 180 68 69 161 135 271 194 99 54 87 59 -26 13 -189 -79 -338 -215
-428 -393 -26 -52 -65 -96 -50 -58 4 10 19 41 35 67 34 57 35 66 6 41 -30 -27
-95 -129 -109 -172 -6 -20 -17 -43 -23 -51 -6 -7 -11 -19 -11 -25 -1 -6 -11
-31 -23 -56 -12 -25 -22 -51 -22 -59 0 -8 -2 -12 -5 -9 -11 10 33 167 58 211
76 129 236 307 356 397 65 48 59 51 -18 10 -144 -77 -253 -195 -338 -368 -31
-62 -58 -111 -60 -108 -2 2 6 28 17 59 24 65 79 152 158 251 45 57 50 66 26
49 -54 -38 -151 -150 -193 -220 -55 -94 -102 -215 -106 -276 -2 -29 -6 -83 -9
-122 l-6 -70 29 85 29 85 -4 -85 -4 -85 24 70 c22 64 24 67 26 35 l2 -35 16
47 c25 69 30 67 26 -14 -5 -92 7 -70 37 70 12 56 24 101 25 99 5 -5 -13 -161
-21 -182 -5 -11 -4 -16 0 -12 5 4 15 -3 22 -15 12 -22 12 -22 13 12 0 19 9 53
20 75 l20 40 -5 -65 -4 -65 22 90 c18 76 61 165 72 153 6 -5 -45 -172 -55
-182 -14 -14 -13 -29 1 -20 8 4 9 -1 5 -17 -3 -13 3 -6 14 17 10 22 28 48 40
59 20 18 20 18 14 -16 -3 -19 -8 -41 -10 -49 -14 -42 16 13 35 66 13 34 36 74
52 90 32 31 35 25 16 -32 -8 -22 -17 -57 -20 -79 l-5 -40 13 30 c8 17 32 68
53 115 21 47 49 94 60 104 30 26 28 17 -14 -66 -37 -73 -67 -148 -59 -148 2 0
16 20 31 45 26 45 47 58 24 15 -6 -11 -10 -25 -8 -31 2 -5 25 27 52 71 27 44
50 80 52 80 1 0 -15 -39 -37 -86 -22 -48 -38 -91 -36 -97 1 -5 31 35 66 91 35
55 77 113 93 129 22 20 15 6 -23 -47 -107 -147 -141 -211 -73 -135 l36 40 -22
-37 c-12 -21 -19 -38 -16 -38 2 0 51 53 107 118 56 64 106 118 110 120 4 2
-22 -41 -57 -94 -35 -54 -64 -101 -64 -106 0 -6 43 41 96 104 157 184 209 235
311 303 54 36 82 52 63 35 -19 -17 -65 -51 -102 -75 -100 -68 -199 -182 -277
-320 -18 -33 -8 -25 59 45 46 47 74 72 63 55 -11 -16 -30 -50 -42 -75 l-22
-45 28 35 c72 89 173 208 189 221 9 7 -14 -28 -52 -78 -63 -85 -120 -173 -111
-173 2 0 34 36 72 80 72 84 93 98 52 33 -13 -21 -32 -54 -41 -73 -15 -31 -11
-28 31 20 107 122 116 129 63 50 -27 -41 -50 -79 -50 -83 0 -4 52 51 116 123
63 71 118 130 121 130 2 0 -18 -28 -45 -62 -53 -67 -112 -157 -112 -170 0 -5
43 39 96 97 104 113 133 138 61 53 -24 -29 -59 -75 -77 -103 l-33 -50 78 75
77 75 -30 -50 c-51 -85 -49 -105 4 -36 27 35 60 71 74 80 28 19 27 15 -29 -64
l-36 -50 82 73 c48 42 89 72 99 70 12 -2 -5 -22 -55 -66 -39 -35 -71 -68 -71
-73 0 -5 54 29 120 76 66 47 126 88 135 91 28 11 16 -5 -27 -35 -54 -38 -141
-118 -108 -99 14 8 61 37 105 65 145 90 155 92 44 5 -107 -83 -99 -86 27 -10
120 72 242 134 249 126 2 -2 -28 -21 -68 -42 -69 -37 -217 -134 -217 -142 0
-3 16 3 37 11 20 8 38 13 41 11 2 -3 18 2 34 10 16 8 34 12 41 8 7 -4 9 -4 5
1 -10 10 4 20 127 84 71 38 90 45 67 26 -19 -15 -68 -45 -110 -66 -43 -22 -66
-36 -52 -33 19 4 16 -1 -15 -20 -50 -32 -46 -32 45 -1 86 29 86 29 70 10 -19
-23 -8 -19 69 26 61 35 260 118 284 119 9 0 -101 -58 -235 -126 -38 -19 -68
-36 -68 -39 0 -2 6 -2 13 0 6 2 61 16 121 30 60 15 116 29 125 31 9 3 0 -4
-19 -15 l-35 -20 35 4 35 5 -35 -15 -35 -15 35 4 c19 3 57 8 84 12 34 5 47 3
42 -4 -9 -15 29 -7 113 23 51 19 87 25 142 24 l74 -1 -64 -13 c-74 -17 -191
-54 -191 -62 0 -3 21 -2 48 1 36 5 43 4 32 -4 -12 -9 -10 -11 10 -6 14 2 70 7
125 10 98 5 99 5 25 -4 -108 -14 -107 -18 5 -21 55 -1 134 -5 175 -9 l75 -7
-90 -2 c-105 -3 -163 -19 -75 -21 55 -1 55 -1 25 -15 l-30 -13 45 -2 c25 -1
65 -5 90 -9 l45 -8 -40 -3 c-54 -2 -51 -3 205 -47 l225 -38 -85 -5 -85 -5 175
-28 c165 -26 287 -53 278 -63 -3 -2 -36 3 -74 11 -38 8 -105 17 -149 20 -110
8 -76 -5 160 -61 104 -25 199 -47 210 -50 42 -11 -18 26 -78 48 -31 11 -56 22
-54 24 5 5 434 -145 525 -183 39 -17 72 -29 72 -27 0 3 -27 22 -61 44 -67 43
-210 102 -364 149 -81 25 -91 30 -50 25 28 -3 59 -8 70 -10 19 -5 19 -4 1 7
-10 6 -62 24 -115 39 -159 46 -227 68 -211 69 8 0 40 -6 70 -14 30 -8 56 -13
58 -11 11 12 -263 96 -311 96 -11 0 -18 2 -15 5 3 3 48 1 99 -5 67 -8 113 -20
159 -42 36 -17 150 -69 254 -115 103 -46 211 -95 240 -109 l51 -25 -40 37
c-51 46 -260 149 -392 194 -56 19 -100 37 -97 41 2 4 -12 10 -31 13 -19 4 -37
11 -40 15 -5 9 167 -40 279 -79 33 -11 61 -19 62 -17 2 2 -21 18 -51 36 -63
38 -196 86 -270 96 -47 7 -102 31 -92 41 6 6 222 -55 277 -78 43 -19 44 -19
27 0 -29 32 -151 82 -264 109 -139 32 -161 41 -106 42 39 1 153 -19 198 -35
17 -5 16 -4 -3 11 -38 28 -187 74 -327 101 -144 28 -217 45 -212 50 4 4 237
-22 317 -35 30 -5 56 -8 58 -6 5 4 -115 42 -173 54 -97 20 -110 24 -95 28 8 2
60 -8 115 -21 55 -13 102 -23 104 -20 6 6 -99 51 -164 70 -36 10 -53 19 -45
24 7 4 -28 15 -84 25 -53 10 -96 19 -96 21 0 3 37 2 83 -1 l82 -4 -74 19 c-40
10 -118 23 -173 29 -55 5 -103 13 -106 16 -4 3 51 5 120 3 130 -3 151 4 63 20
-46 9 -47 10 -15 12 29 1 32 3 15 10 -11 5 -33 9 -48 9 -16 1 -26 5 -23 10 4
5 -4 7 -16 5 -15 -3 -17 -2 -8 3 10 5 -2 11 -35 19 -38 9 -43 12 -21 13 38 1
31 7 -35 31 -30 11 -45 20 -34 20 28 1 -66 37 -145 55 l-65 15 55 -4 c55 -4
55 -4 22 10 -58 25 -215 62 -297 69 -45 3 -119 1 -170 -5 -49 -6 -124 -13
-165 -15 l-75 -4 84 14 c47 7 146 17 220 21 106 6 128 9 101 16 -64 15 -299
12 -379 -6 -41 -8 -76 -14 -79 -12 -2 2 41 14 95 26 154 34 155 34 103 38 -38
3 -159 -11 -209 -24 -9 -2 2 5 24 16 l40 19 -31 1 c-17 0 -33 -3 -37 -6z
m-282 -106 c-44 -23 -85 -43 -92 -44 -7 -1 -26 -12 -42 -23 -29 -21 -111 -54
-111 -46 0 3 19 14 43 26 23 12 44 25 47 30 6 9 209 97 225 98 6 0 -26 -19
-70 -41z m175 -17 c-55 -28 -122 -50 -107 -34 10 9 137 62 152 62 6 0 -15 -12
-45 -28z m-121 -4 c-19 -15 -79 -47 -79 -43 0 8 62 46 74 46 5 0 7 -1 5 -3z
m476 -6 c-11 -5 50 -6 135 -4 85 2 189 0 230 -5 64 -8 43 -10 -145 -11 -121 0
-238 -5 -260 -11 -56 -13 -68 -11 -20 5 33 11 36 14 15 15 l-25 2 25 8 c14 4
34 8 45 8 l20 1 -20 -8z m225 -61 c-39 -9 -311 -22 -294 -14 10 4 234 21 299
22 29 0 28 0 -5 -8z m-550 -10 c-8 -5 -19 -10 -25 -10 -5 0 -3 5 5 10 8 5 20
10 25 10 6 0 3 -5 -5 -10z m803 3 c-13 -2 -35 -2 -50 0 -16 2 -5 4 22 4 28 0
40 -2 28 -4z m-1028 -32 c-27 -16 -62 -40 -76 -53 -25 -23 -112 -80 -98 -65
21 24 195 147 208 147 9 0 -6 -13 -34 -29z m1118 22 c-7 -2 -21 -2 -30 0 -10
3 -4 5 12 5 17 0 24 -2 18 -5z m-283 -13 c-22 -7 -20 -8 15 -10 22 0 58 -4 80
-9 33 -6 23 -8 -65 -14 -62 -4 -106 -4 -108 2 -2 5 -22 7 -45 5 -33 -3 -28 0
28 16 39 10 81 18 95 18 l25 0 -25 -8z m347 4 c-3 -3 -12 -4 -19 -1 -8 3 -5 6
6 6 11 1 17 -2 13 -5z m-1658 -32 c-22 -17 -69 -35 -69 -26 0 5 73 43 84 44 5
0 -2 -8 -15 -18z m491 -15 c-19 -12 -48 -29 -65 -36 -27 -11 -28 -11 -15 3 16
16 89 55 105 56 5 0 -6 -10 -25 -23z m1143 6 c-13 -2 -33 -2 -45 0 -13 2 -3 4
22 4 25 0 35 -2 23 -4z m-733 -7 c0 -11 -19 -15 -25 -6 -3 5 1 10 9 10 9 0 16
-2 16 -4z m808 -3 c-10 -2 -26 -2 -35 0 -10 3 -2 5 17 5 19 0 27 -2 18 -5z
m-1092 -18 c-11 -8 -25 -15 -30 -15 -6 1 0 7 14 15 32 19 40 18 16 0z m-904
-24 c-18 -16 -35 -37 -36 -47 -2 -10 -18 -23 -42 -31 -34 -12 -37 -12 -24 1
33 31 124 106 129 106 3 -1 -9 -14 -27 -29z m218 4 c-7 -8 -17 -15 -23 -15 -6
0 -2 7 9 15 25 19 30 19 14 0z m1617 8 c-20 -2 -52 -2 -70 0 -17 2 0 4 38 4
39 0 53 -2 32 -4z m-1958 -70 c-66 -71 -97 -98 -105 -90 -5 4 153 157 163 157
3 0 -23 -30 -58 -67z m1716 58 c30 -7 10 -9 -75 -8 -85 0 -102 2 -65 7 72 10
95 10 140 1z m-435 -16 c-33 -19 -46 -19 -30 0 7 8 22 15 34 15 20 -1 20 -2
-4 -15z m-163 -1 c-3 -3 -12 -4 -19 -1 -8 3 -5 6 6 6 11 1 17 -2 13 -5z m-647
-31 c-11 -15 -31 -33 -43 -41 -12 -8 -4 4 18 26 45 48 56 55 25 15z m510 23
c0 -6 -66 -46 -76 -46 -5 0 -2 5 6 10 25 16 -7 12 -40 -5 -41 -21 -130 -55
-130 -50 0 10 128 69 175 81 59 14 65 15 65 10z m70 -16 c-19 -11 -42 -19 -50
-19 -8 0 3 8 25 18 52 25 70 26 25 1z m85 10 c-3 -5 0 -10 7 -10 9 0 9 -3 -2
-10 -8 -5 -28 -10 -45 -9 l-30 0 35 19 c41 23 43 23 35 10z m670 -10 c-22 -5
-87 -8 -145 -8 -131 2 -74 12 75 14 81 2 100 0 70 -6z m-1475 -5 c0 -3 -24
-31 -53 -63 -30 -32 -72 -86 -95 -119 -23 -34 -48 -65 -54 -69 -27 -17 51 90
140 194 52 59 62 68 62 57z m400 -52 c-29 -32 -60 -62 -69 -67 -9 -5 13 21 49
58 35 36 66 66 68 66 2 0 -20 -26 -48 -57z m-476 9 c-18 -15 -51 -40 -73 -56
-23 -15 -72 -64 -108 -107 -35 -43 -69 -79 -75 -79 -14 0 58 84 138 160 38 36
69 69 69 74 0 11 67 47 74 40 3 -3 -8 -18 -25 -32z m1286 28 c0 -5 -21 -9 -47
-9 -47 2 -47 2 -13 9 52 11 60 11 60 0z m455 -10 c-3 -5 -41 -10 -83 -10 -96
0 -79 17 20 19 46 1 67 -2 63 -9z m-725 -15 c-14 -8 -35 -14 -48 -15 -13 0
-21 -4 -17 -10 3 -5 -8 -16 -25 -25 -38 -19 -40 -11 -2 9 23 13 24 15 7 16
-29 2 53 40 85 39 l25 0 -25 -14z m-205 -4 c-6 -5 -41 -26 -80 -45 -65 -34
-67 -34 -36 -9 19 16 52 36 75 45 49 20 53 21 41 9z m635 0 c-8 -5 -37 -11
-65 -14 l-50 -6 45 14 c53 16 94 19 70 6z m-1632 -73 c-85 -84 -127 -137 -133
-167 -2 -11 -10 -30 -19 -42 -15 -22 -56 -54 -56 -45 0 21 96 161 147 216 35
37 60 69 58 72 -6 5 53 37 68 38 4 0 -25 -33 -65 -72z m1762 31 c-43 -12 -56
-10 -35 5 10 7 28 11 39 8 20 -6 20 -6 -4 -13z m355 11 c4 -6 -13 -10 -43 -10
-27 0 -71 -2 -98 -5 -34 -4 -43 -3 -29 4 16 7 12 10 -25 13 -25 3 8 5 72 6 69
1 119 -2 123 -8z m-1776 -36 c-18 -20 -47 -45 -64 -56 -16 -11 -3 6 30 36 68
63 86 74 34 20z m436 26 c-3 -6 -21 -18 -38 -27 -30 -15 -31 -15 -17 2 8 9 23
21 35 25 27 12 27 12 20 0z m924 6 c-2 -2 -17 -6 -34 -10 -22 -5 -26 -4 -15 4
14 9 59 15 49 6z m-458 -22 c-18 -8 -36 -13 -39 -10 -6 7 37 25 58 25 8 -1 0
-7 -19 -15z m569 -24 c-36 -11 -76 -19 -90 -19 -14 0 7 9 45 19 93 24 127 24
45 0z m-1957 -37 c-53 -65 -72 -92 -53 -75 23 20 35 14 15 -8 -10 -11 -24 -20
-32 -20 -24 0 13 71 58 113 23 20 44 37 46 37 3 0 -13 -21 -34 -47z m807 43
c0 -2 -12 -12 -27 -21 l-28 -18 19 21 c17 20 36 29 36 18z m510 -11 c-14 -8
-21 -14 -15 -15 13 0 -64 -40 -99 -51 -43 -13 -22 5 55 46 61 33 112 50 59 20z
m1050 5 c22 -7 21 -8 -12 -9 -20 -1 -40 4 -43 9 -7 12 19 12 55 0z m-181 -10
c-36 -5 -83 -13 -105 -19 -46 -13 -68 -13 -39 -1 l20 9 -20 2 c-26 3 96 15
160 16 45 0 44 0 -16 -7z m-1449 -3 c0 -2 -15 -14 -32 -27 l-33 -23 24 26 c21
23 41 35 41 24z m1695 -7 c4 -6 -7 -10 -27 -10 -56 0 -308 -49 -322 -62 -28
-26 -68 -52 -84 -54 -9 -1 -37 -5 -62 -9 -40 -6 -36 -3 38 28 45 19 91 42 102
52 11 10 37 19 57 22 21 2 90 12 153 22 145 23 138 23 145 11z m-1410 -29
c-42 -38 -146 -121 -152 -121 -14 0 63 73 107 101 45 29 62 37 45 20z m1480
-1 c3 -6 -1 -7 -9 -4 -18 7 -21 14 -7 14 6 0 13 -4 16 -10z m-1635 -3 c0 -2
-12 -14 -27 -28 l-28 -24 24 28 c23 25 31 32 31 24z m1060 -31 c-42 -21 -88
-36 -125 -40 -58 -6 -56 -5 55 33 143 49 152 50 70 7z m-330 19 c0 -6 -56 -35
-67 -35 -4 1 8 9 27 20 39 22 40 22 40 15z m-1710 -19 c0 -2 -8 -10 -17 -17
-16 -13 -17 -12 -4 4 13 16 21 21 21 13z m1166 -21 c-11 -8 -27 -15 -35 -15
-9 1 -2 7 14 15 39 18 44 18 21 0z m1302 8 c-21 -2 -57 -2 -80 0 -24 2 -7 4
37 4 44 0 63 -2 43 -4z m117 -35 c7 -8 4 -9 -8 -4 -10 3 -44 7 -75 7 -56 2
-56 2 -17 9 45 9 85 4 100 -12z m-1875 -22 c0 -2 -8 -10 -17 -17 -16 -13 -17
-12 -4 4 13 16 21 21 21 13z m-689 -63 c-16 -32 -36 -76 -45 -97 -30 -72 -28
-29 3 49 24 62 50 102 68 105 1 0 -11 -26 -26 -57z m-95 10 c-8 -15 -15 -25
-16 -21 0 12 23 58 27 54 3 -2 -2 -17 -11 -33z m2717 30 c-29 -2 -77 -2 -105
0 -29 2 -6 3 52 3 58 0 81 -1 53 -3z m-2770 -70 c-16 -57 -43 -110 -43 -85 0
46 38 142 56 142 1 0 -5 -26 -13 -57z m2765 -13 c143 -16 331 -52 308 -60 -15
-5 -9 -9 28 -20 25 -7 49 -16 51 -20 6 -10 -8 -6 -155 35 -134 38 -212 53
-330 64 -50 5 -67 9 -42 10 23 0 86 -4 140 -9z"/>
<path d="M4882 5236 c76 -64 159 -165 217 -260 45 -76 52 -71 20 13 -43 114
-141 226 -241 277 -26 13 -50 24 -53 24 -3 0 22 -24 57 -54z"/>
<path d="M4997 5257 c89 -101 147 -258 213 -577 32 -156 39 -176 39 -129 1 31
-4 93 -10 138 -6 45 -9 84 -6 87 2 2 17 -60 33 -138 23 -112 30 -134 32 -103
7 87 -29 313 -75 465 -23 77 -82 214 -89 207 -2 -2 6 -31 16 -66 24 -77 80
-316 80 -339 -1 -9 -14 35 -30 98 -45 176 -137 341 -214 382 -16 9 -14 3 11
-25z"/>
<path d="M7964 5236 c-62 -64 -123 -185 -158 -313 -14 -49 -25 -82 -25 -75 -1
18 64 288 78 325 21 55 -1 25 -34 -46 -63 -137 -132 -466 -123 -590 2 -33 11
-5 38 127 19 93 36 164 38 158 2 -6 -2 -37 -7 -69 -6 -32 -13 -103 -16 -158
l-5 -100 15 70 c9 39 27 124 41 190 50 230 119 411 189 493 52 60 31 52 -31
-12z"/>
<path d="M8115 5263 c-104 -54 -228 -214 -250 -323 -6 -32 -4 -30 30 25 72
119 127 184 228 274 65 57 63 61 -8 24z"/>
<path d="M5201 5185 c23 -64 68 -270 105 -480 36 -204 39 -215 42 -155 9 182
-74 557 -143 646 -14 17 -14 16 -4 -11z"/>
<path d="M5245 5195 c70 -183 134 -491 136 -660 0 -40 3 -53 8 -40 8 19 9 19
17 -5 7 -22 9 -19 15 25 23 160 2 449 -42 585 -20 63 -47 120 -35 75 11 -40
36 -221 35 -255 0 -29 -4 -24 -20 34 -21 74 -77 201 -104 238 -15 19 -16 20
-10 3z"/>
<path d="M7710 5125 c-24 -48 -53 -121 -66 -163 -19 -63 -23 -71 -23 -42 -1
19 6 80 14 134 8 55 13 101 11 103 -6 7 -44 -116 -56 -182 -25 -135 -24 -505
1 -505 5 0 9 12 10 28 l1 27 7 -25 c5 -16 10 14 14 85 11 179 63 428 117 566
33 82 16 68 -30 -26z"/>
<path d="M7770 5148 c-63 -136 -108 -346 -115 -543 -3 -66 -3 -115 0 -110 2 6
25 123 50 260 39 218 76 379 100 438 4 9 4 17 1 17 -4 0 -20 -28 -36 -62z"/>
<path d="M5400 5138 c0 -2 11 -44 25 -95 33 -125 62 -299 77 -468 10 -121 13
-135 21 -100 22 99 -5 366 -52 512 -25 77 -71 176 -71 151z"/>
<path d="M7567 5083 c-77 -176 -117 -449 -89 -608 6 -32 10 -14 21 100 16 172
43 339 75 465 14 52 24 96 22 97 -2 2 -15 -23 -29 -54z"/>
<path d="M5676 5105 c4 -11 9 -173 12 -360 3 -198 9 -325 13 -305 16 74 31
319 25 410 -8 103 -32 236 -48 260 -7 11 -8 10 -2 -5z"/>
<path d="M7310 5082 c-26 -98 -33 -167 -34 -312 0 -139 19 -368 31 -357 2 3 4
119 4 258 0 140 3 297 8 349 4 52 6 97 5 99 -2 1 -8 -15 -14 -37z"/>
<path d="M7412 5048 c-41 -146 -58 -257 -68 -454 -8 -162 4 -218 22 -99 l11
80 2 -85 c4 -132 16 -68 46 230 14 146 30 280 35 299 15 54 4 48 -19 -11 -22
-59 -26 -44 -11 46 5 33 8 61 6 63 -2 2 -12 -29 -24 -69z"/>
<path d="M5571 5058 c13 -88 10 -109 -7 -58 -9 25 -21 50 -26 55 -7 7 -9 7 -5
-1 8 -14 32 -210 53 -429 20 -209 32 -258 35 -140 l2 80 12 -70 c31 -182 31
124 -1 339 -14 101 -51 254 -64 269 -3 4 -3 -16 1 -45z"/>
<path d="M5752 4730 c-13 -140 -25 -277 -28 -305 l-4 -50 15 33 c28 61 55 255
54 390 -2 220 -13 200 -37 -68z"/>
<path d="M7216 4915 c-12 -97 0 -302 24 -413 26 -121 44 -152 35 -62 -21 237
-46 499 -48 520 -2 14 -7 -6 -11 -45z"/>
<path d="M1354 4425 c-172 -46 -344 -125 -449 -207 -30 -23 -53 -44 -51 -46 2
-1 27 11 55 27 74 44 253 122 536 234 60 24 13 20 -91 -8z"/>
<path d="M11530 4447 c3 -3 90 -39 193 -81 174 -70 375 -164 405 -188 7 -6 15
-8 18 -6 3 3 -23 27 -58 53 -84 63 -260 148 -383 183 -101 30 -184 48 -175 39z"/>
<path d="M1750 3141 c21 -40 217 -195 305 -242 25 -13 45 -31 45 -40 0 -23
-66 -129 -108 -172 -137 -142 -309 -124 -509 55 -47 41 -47 41 7 -16 193 -203
393 -226 559 -64 45 44 50 47 31 18 -40 -58 -143 -156 -190 -181 -36 -18 -61
-23 -120 -23 -94 0 -174 21 -319 84 -139 59 -133 50 14 -24 110 -54 186 -81
273 -96 44 -7 43 -8 -28 -9 -113 -1 -228 36 -365 117 -45 27 -59 33 -40 17 53
-46 168 -108 255 -139 74 -27 98 -30 190 -30 72 0 119 5 150 16 l45 17 -34
-29 c-53 -45 -155 -90 -223 -99 l-63 -8 50 -2 c143 -3 319 102 539 320 121
122 123 121 27 -15 -83 -118 -146 -182 -214 -221 -58 -32 -73 -48 -24 -24 22
10 22 10 2 -6 -36 -29 -109 -69 -160 -88 -46 -16 -47 -17 -12 -12 87 14 142
43 313 168 22 16 76 53 122 83 l83 55 -20 -38 c-10 -21 -28 -46 -40 -57 -11
-10 -18 -22 -16 -26 3 -5 -10 -27 -27 -51 -24 -30 -47 -48 -83 -61 -39 -14
-42 -16 -15 -12 32 6 33 5 21 -10 -16 -19 -62 -45 -101 -57 -20 -6 -21 -7 -5
-8 28 -1 98 32 142 68 21 16 65 44 98 61 77 40 194 130 247 189 49 55 44 45
-35 -72 -71 -104 -91 -124 -177 -177 -73 -45 -74 -49 -3 -19 l48 20 -30 -33
c-35 -37 -56 -58 -105 -101 l-35 -30 34 20 c45 28 181 144 192 165 5 9 37 38
72 64 34 26 98 79 142 118 43 39 75 65 71 58 -13 -22 -99 -145 -136 -195 -19
-26 -46 -50 -58 -53 -16 -4 -20 -9 -12 -14 8 -5 -10 -31 -56 -81 -80 -85 -40
-61 59 36 62 60 151 117 131 83 -69 -117 -85 -136 -137 -158 -28 -13 -72 -29
-97 -36 -25 -7 -39 -13 -31 -13 7 -1 41 6 75 15 33 9 68 18 76 19 19 2 60 26
161 91 86 56 91 41 6 -24 -55 -43 -142 -87 -155 -78 -4 2 -16 -2 -27 -10 -10
-8 -15 -14 -11 -14 5 0 2 -8 -5 -17 -10 -13 -6 -12 11 3 14 11 50 28 81 37
114 35 232 134 298 252 17 30 34 55 37 55 15 0 -96 -168 -155 -234 -25 -29
-25 -29 16 4 42 33 96 92 167 184 44 58 41 39 -9 -50 -19 -34 -42 -64 -50 -68
-9 -3 -14 -10 -11 -15 9 -15 -120 -128 -154 -136 -17 -4 -29 -9 -26 -12 13
-13 103 33 160 81 34 29 86 67 116 85 73 45 115 82 174 155 70 88 72 89 31 6
-61 -123 -115 -212 -164 -269 -34 -41 -39 -50 -19 -37 32 21 100 99 157 180
22 33 41 57 41 54 0 -13 -60 -138 -85 -177 -55 -88 -2 -26 65 76 39 58 70 103
70 100 0 -3 -20 -63 -44 -134 -24 -70 -47 -137 -50 -148 -19 -54 90 169 150
309 37 88 70 154 72 147 5 -15 -41 -164 -74 -240 -38 -88 5 -28 68 96 29 56
54 101 55 99 5 -5 -44 -161 -72 -231 -27 -67 -71 -147 -104 -191 -9 -11 3 -1
25 23 58 60 125 178 183 324 28 68 50 114 51 102 0 -39 -49 -287 -69 -348 -15
-42 -16 -54 -6 -41 23 30 74 170 108 298 31 114 47 146 47 92 0 -48 -31 -225
-50 -280 -9 -30 -16 -54 -14 -54 7 0 37 66 66 140 l28 75 -6 -50 c-8 -60 0
-56 26 16 l20 54 -5 -95 c-2 -52 -7 -111 -10 -130 -9 -62 12 4 40 120 l25 105
-3 -100 c-3 -91 -3 -97 9 -60 6 22 16 65 20 95 l8 55 12 -95 c7 -62 8 -102 2
-114 -7 -12 -7 -16 0 -12 6 3 16 -19 25 -52 l15 -57 -5 73 c-6 71 -4 77 33
154 l39 80 7 -38 c4 -22 7 -64 8 -94 3 -106 19 -19 19 104 1 112 22 226 41
226 13 0 19 -135 11 -225 -5 -49 -8 -91 -6 -93 7 -8 39 120 53 217 l16 115 12
-65 c6 -35 18 -79 26 -98 13 -32 13 -31 11 45 -2 86 4 76 29 -41 l13 -60 5 90
c5 93 10 92 30 -8 24 -119 86 -269 140 -337 13 -16 7 3 -15 50 -41 89 -77 243
-73 314 l3 51 42 -70 c50 -85 119 -163 164 -189 31 -18 30 -15 -18 36 -47 50
-100 138 -118 196 -4 15 24 -9 76 -62 45 -48 84 -84 86 -82 2 2 -15 30 -39 63
-42 56 -128 189 -128 199 0 2 6 4 13 4 6 0 20 -18 30 -40 26 -56 107 -142 160
-170 25 -14 55 -41 70 -64 15 -23 38 -54 52 -71 24 -28 24 -27 -5 26 -16 31
-30 58 -30 62 0 3 15 1 32 -4 55 -15 56 -10 2 15 l-51 24 -42 117 c-22 64 -41
122 -41 130 0 9 24 15 87 20 168 14 293 -10 448 -86 l80 -40 -67 65 c-70 65
-175 127 -278 162 -80 27 -426 26 -725 -4 -503 -49 -801 -52 -1125 -12 -444
55 -794 161 -1052 315 -52 32 -84 46 -78 36z m666 -438 c-3 -10 -29 -41 -57
-68 l-51 -50 53 72 c53 71 66 82 55 46z m2014 -121 c27 -50 47 -92 45 -92 -19
0 -93 114 -110 169 -16 52 18 12 65 -77z m-1897 36 c-22 -39 -180 -201 -211
-217 -39 -21 55 99 123 156 33 28 69 60 79 72 27 30 30 26 9 -11z m1323 -63
c6 -46 -14 -152 -42 -210 -12 -27 -13 -21 -8 75 2 58 7 122 10 143 8 52 31 48
40 -8z m-971 -52 c-3 -14 -27 -51 -53 -81 -49 -57 -182 -175 -190 -168 -10 11
93 138 143 175 30 23 65 55 77 71 27 37 32 38 23 3z m-161 -45 c-23 -39 -48
-69 -67 -80 -14 -7 -7 6 22 40 41 49 61 67 45 40z m330 -79 c-10 -12 -37 -35
-59 -51 -29 -22 -25 -16 15 21 57 53 77 66 44 30z"/>
<path d="M11170 3105 c-315 -194 -839 -322 -1395 -342 -191 -6 -416 5 -775 38
-118 11 -305 22 -415 26 -184 5 -207 4 -283 -16 -130 -34 -232 -91 -327 -183
l-50 -49 81 41 c44 22 125 52 180 66 87 22 114 25 220 21 66 -2 126 -7 132
-11 11 -6 -2 -46 -70 -230 -8 -20 -26 -35 -62 -52 -53 -25 -53 -30 1 -15 31 9
32 9 22 -17 -6 -15 -20 -43 -32 -62 -36 -59 7 -16 49 49 25 38 52 65 79 80 55
29 115 92 159 164 19 32 37 54 40 49 7 -11 -60 -125 -119 -203 -26 -34 -44
-63 -42 -65 2 -2 41 34 85 81 45 46 82 82 82 78 0 -28 -87 -176 -127 -217 -53
-55 -25 -46 39 12 40 36 77 85 131 172 l29 45 -6 -85 c-7 -96 -35 -207 -72
-283 -23 -48 -23 -50 -3 -27 48 56 105 198 132 328 9 41 18 76 21 80 3 3 6
-37 7 -89 l1 -94 14 60 c31 131 34 136 30 45 -3 -84 -3 -84 11 -45 8 22 20 69
27 105 l13 65 7 -55 c13 -100 36 -218 49 -248 10 -24 11 -3 8 129 -2 93 1 159
6 159 21 0 43 -108 44 -211 0 -57 4 -122 8 -144 l9 -40 1 45 c1 25 4 69 8 98
l6 54 39 -74 c38 -71 39 -75 35 -153 -5 -77 -4 -78 8 -40 8 22 14 51 14 65 1
20 3 22 11 10 8 -11 9 -8 4 13 -3 15 -3 67 1 115 l8 87 19 -89 c10 -49 20 -91
22 -94 3 -2 3 40 1 95 -4 86 -3 92 6 53 21 -86 59 -215 54 -181 -3 19 -7 79
-10 135 l-6 101 20 -58 c26 -78 35 -84 27 -17 l-7 55 26 -74 c28 -81 54 -135
61 -128 2 2 -2 23 -11 46 -14 40 -45 226 -45 270 0 48 17 14 43 -86 30 -113
102 -309 117 -318 5 -3 2 13 -6 37 -19 54 -60 248 -69 325 l-6 58 44 -105 c74
-180 152 -317 208 -365 18 -16 17 -12 -8 25 -48 71 -88 157 -121 260 -48 148
-47 152 13 40 30 -58 64 -116 75 -130 18 -22 17 -19 -4 30 -44 102 -91 269
-70 247 3 -3 38 -81 78 -174 66 -153 134 -295 135 -283 1 3 -19 65 -44 139
-25 74 -45 137 -45 140 0 3 26 -35 59 -85 32 -50 63 -94 69 -98 6 -4 -9 34
-34 85 -49 96 -54 122 -14 61 45 -68 132 -172 164 -195 29 -20 28 -18 -10 28
-57 68 -103 142 -158 255 -36 74 -40 87 -19 60 50 -65 178 -185 218 -205 22
-11 65 -41 95 -68 56 -49 105 -79 150 -91 14 -4 5 4 -20 18 -43 23 -130 106
-130 123 0 5 -9 16 -19 25 -22 18 -96 147 -89 154 3 2 16 -13 30 -34 38 -56
129 -158 174 -194 l39 -32 -26 30 c-61 69 -179 247 -152 231 6 -4 25 -32 43
-63 64 -113 179 -209 290 -240 30 -9 68 -28 85 -43 23 -20 25 -21 11 -3 -11
12 -16 22 -11 22 4 0 -3 9 -16 21 l-24 20 25 -7 c141 -40 194 -46 85 -10 -125
41 -122 39 -185 146 l-29 48 37 -15 c19 -8 65 -43 101 -78 100 -97 134 -118
57 -36 -51 56 -65 76 -55 82 11 7 10 9 -3 9 -21 0 -65 52 -148 172 l-64 93 55
-50 c30 -27 84 -72 119 -100 35 -27 102 -87 149 -132 83 -79 136 -123 174
-144 9 -5 -20 26 -65 71 l-83 80 49 -20 c56 -23 75 -20 24 4 -65 31 -133 92
-189 171 -81 112 -102 153 -50 93 51 -58 181 -157 253 -192 29 -15 81 -47 116
-71 35 -25 71 -45 80 -45 10 1 2 9 -19 20 -19 10 -42 26 -49 35 -13 15 -10 16
26 11 36 -6 35 -5 -11 10 -56 18 -81 37 -109 85 -17 29 -17 32 -2 26 10 -4 2
8 -17 26 -19 17 -42 47 -51 64 -16 32 -13 31 86 -34 57 -37 123 -83 148 -103
89 -73 231 -141 287 -139 10 0 0 6 -22 13 -46 15 -106 45 -150 76 -28 20 -29
21 -5 15 14 -3 -4 11 -38 31 -66 38 -157 134 -232 244 -69 102 -61 100 52 -14
213 -213 391 -318 535 -315 l58 2 -68 8 c-73 10 -175 54 -229 100 l-33 28 45
-16 c77 -26 185 -28 276 -5 44 11 102 30 130 43 63 30 192 107 200 121 4 6
-13 -1 -37 -16 -134 -84 -266 -127 -380 -125 l-74 1 58 9 c69 10 213 65 315
121 39 22 72 41 72 43 0 2 -33 -11 -72 -30 -149 -68 -256 -98 -348 -99 -81 -1
-89 1 -144 34 -57 34 -132 108 -177 173 -16 23 -5 15 38 -26 168 -157 359
-135 548 64 52 54 53 57 12 21 -239 -213 -437 -198 -581 42 -43 72 -45 89 -9
105 58 27 197 128 271 197 42 40 73 73 67 72 -5 0 -48 -24 -95 -53z m-530
-447 l52 -73 -50 50 c-42 42 -75 95 -59 95 3 0 28 -33 57 -72z m-2005 0 c-14
-44 -58 -117 -88 -145 -30 -27 -30 -27 -15 -3 8 14 32 58 52 98 34 68 65 99
51 50z m1947 -124 c45 -36 131 -152 100 -135 -35 19 -132 112 -176 170 -62 82
-65 91 -10 40 27 -25 66 -59 86 -75z m-1398 29 c12 -81 17 -248 7 -233 -23 37
-52 176 -45 223 7 58 30 63 38 10z m1035 -137 c45 -33 161 -176 143 -176 -15
0 -146 118 -194 173 -26 30 -50 67 -54 83 l-6 29 31 -37 c17 -20 53 -52 80
-72z m123 -30 c20 -27 20 -28 2 -18 -24 13 -48 39 -64 72 l-13 25 28 -25 c15
-14 36 -38 47 -54z m-308 -84 c7 -16 -61 36 -89 69 -11 13 3 5 32 -16 29 -22
54 -46 57 -53z m310 -85 c93 -56 123 -85 68 -66 -49 17 -153 91 -181 129 l-25
35 24 -22 c14 -12 65 -46 114 -76z"/>
<path d="M10928 2233 c6 -2 18 -2 25 0 6 3 1 5 -13 5 -14 0 -19 -2 -12 -5z"/>
</g>
</svg>
