<?xml version="1.0" standalone="no"?>
<!DOCTYPE svg PUBLIC "-//W3C//DTD SVG 20010904//EN"
 "http://www.w3.org/TR/2001/REC-SVG-20010904/DTD/svg10.dtd">
<svg version="1.0" xmlns="http://www.w3.org/2000/svg"
 width="183.000000pt" height="275.000000pt" viewBox="0 0 183.000000 275.000000"
 preserveAspectRatio="xMidYMid meet">

<g transform="translate(0.000000,275.000000) scale(0.100000,-0.100000)"
fill="#000000" stroke="none">
<path d="M795 2727 c-95 -32 -167 -84 -234 -171 -62 -80 -85 -176 -43 -176 10
0 49 13 87 29 195 82 439 82 616 0 59 -27 73 -30 94 -21 83 38 -46 227 -209
307 -73 36 -86 40 -175 42 -60 2 -111 -2 -136 -10z"/>
<path d="M797 2379 c-280 -29 -500 -168 -607 -381 -60 -119 -75 -203 -75 -405
0 -115 -4 -173 -11 -173 -16 0 -72 -62 -83 -92 -35 -94 -16 -262 40 -349 33
-52 92 -101 143 -120 27 -9 40 -29 93 -137 101 -205 231 -349 385 -427 88 -44
163 -59 266 -52 70 4 96 11 168 46 47 22 112 61 145 86 108 84 239 255 324
424 26 53 57 94 110 145 150 146 176 302 68 414 l-44 47 12 49 c36 149 -39
444 -160 629 -111 170 -297 270 -551 297 -106 11 -113 11 -223 -1z m410 -442
c53 -186 156 -340 278 -419 l60 -39 0 -174 c0 -242 15 -251 107 -68 44 89 52
92 84 32 41 -81 -13 -211 -125 -296 -34 -26 -56 -53 -71 -88 -67 -151 -219
-362 -319 -441 -76 -61 -183 -112 -259 -123 -236 -37 -483 161 -632 508 -36
82 -38 84 -86 102 -99 37 -154 121 -162 245 -5 77 8 132 37 158 17 15 20 12
55 -59 38 -78 80 -135 98 -135 8 0 9 45 5 144 l-6 145 62 20 c34 11 130 36
212 56 169 41 303 92 387 148 117 78 205 202 231 322 6 30 13 52 16 49 3 -2
15 -41 28 -87z"/>
<path d="M465 1367 c-54 -21 -75 -37 -75 -57 0 -25 17 -25 71 0 60 27 125 26
180 -3 48 -26 69 -25 69 3 0 12 -18 27 -52 44 -57 29 -139 34 -193 13z"/>
<path d="M1173 1355 c-83 -42 -63 -86 20 -46 57 27 124 27 182 -1 33 -16 48
-19 56 -11 32 32 -44 75 -141 81 -55 3 -73 -1 -117 -23z"/>
<path d="M450 1180 c-6 -4 -10 -16 -9 -26 2 -11 -2 -29 -9 -40 -9 -18 -9 -24
4 -34 12 -11 19 -9 42 11 34 32 72 28 72 -6 0 -13 5 -27 10 -30 15 -9 40 14
40 35 0 28 30 33 55 10 27 -25 55 -26 55 -2 0 10 -3 22 -7 26 -5 4 -8 18 -8
29 0 24 -5 25 -105 12 -40 -5 -65 -3 -91 8 -20 8 -42 11 -49 7z"/>
<path d="M1143 1183 c-7 -3 -13 -17 -13 -32 0 -15 -5 -32 -11 -38 -15 -15 -4
-43 15 -43 8 0 24 12 35 26 26 32 58 25 63 -14 4 -40 41 -37 48 3 7 41 36 45
65 9 27 -34 62 -28 50 9 -4 12 -8 32 -9 45 -4 37 -17 43 -61 27 -51 -18 -97
-19 -138 -2 -18 8 -38 12 -44 10z"/>
<path d="M793 673 c-10 -24 39 -61 92 -69 78 -11 180 42 142 75 -10 8 -24 5
-53 -10 -44 -23 -104 -21 -133 5 -23 21 -40 20 -48 -1z"/>
<path d="M107 636 c7 -45 -13 -101 -45 -127 l-27 -21 27 7 c32 8 87 -8 122
-36 l26 -20 0 36 c0 40 12 68 44 104 18 21 19 23 3 18 -32 -12 -105 13 -132
44 l-24 29 6 -34z"/>
<path d="M1665 570 c-24 -26 -80 -43 -122 -37 l-34 6 24 -19 c33 -26 50 -71
45 -119 l-3 -40 25 24 c35 33 78 48 120 40 34 -6 34 -6 13 9 -28 21 -57 98
-49 131 8 30 5 31 -19 5z"/>
<path d="M208 263 c7 -55 -7 -101 -41 -136 l-32 -34 36 4 c51 7 103 -12 138
-52 l30 -34 -6 34 c-9 53 5 102 40 142 29 33 30 36 10 31 -40 -11 -112 12
-146 46 l-33 32 4 -33z"/>
<path d="M550 228 c0 -12 -7 -30 -17 -40 -15 -17 -15 -18 8 -18 14 0 33 -6 44
-14 18 -12 20 -11 21 11 1 13 10 33 20 44 16 17 16 19 1 14 -9 -4 -30 0 -47 8
-29 15 -30 15 -30 -5z"/>
<path d="M1216 185 c-11 -8 -30 -15 -43 -15 -23 0 -23 -1 -9 -22 9 -12 16 -31
16 -41 0 -14 4 -16 19 -7 11 5 29 10 40 10 18 0 19 2 4 30 -8 17 -12 37 -9 45
7 18 6 18 -18 0z"/>
</g>
</svg>
