<?xml version="1.0" standalone="no"?>
<!DOCTYPE svg PUBLIC "-//W3C//DTD SVG 20010904//EN"
 "http://www.w3.org/TR/2001/REC-SVG-20010904/DTD/svg10.dtd">
<svg version="1.0" xmlns="http://www.w3.org/2000/svg"
 width="864.000000pt" height="1152.000000pt" viewBox="0 0 864.000000 1152.000000"
 preserveAspectRatio="xMidYMid meet">

<g transform="translate(0.000000,1152.000000) scale(0.100000,-0.100000)"
fill="#000000" stroke="none">
<path d="M2699 8910 c-31 -30 -50 -69 -297 -590 -77 -162 -219 -455 -317 -652
-190 -381 -207 -428 -172 -482 24 -35 63 -44 242 -50 199 -7 379 -33 590 -86
542 -133 1016 -381 1612 -840 163 -126 662 -541 705 -586 47 -51 78 -127 89
-221 7 -61 7 -96 0 -115 -13 -34 -65 -68 -104 -68 -73 0 -149 -67 -188 -166
-18 -47 -23 -79 -23 -154 -1 -91 1 -98 37 -166 57 -109 50 -124 -60 -124 -82
0 -126 -15 -161 -53 -43 -46 -51 -90 -45 -237 7 -172 -7 -233 -116 -489 -102
-241 -215 -563 -236 -677 -24 -122 -16 -242 21 -353 24 -74 31 -85 58 -95 17
-6 82 -36 144 -67 l113 -57 62 25 c154 61 209 129 358 442 62 130 172 355 245
501 437 873 787 1227 1266 1281 110 12 180 7 403 -27 410 -63 789 172 1001
621 72 152 89 233 88 420 0 145 -3 169 -27 249 -96 312 -316 561 -722 816
-415 262 -914 444 -1670 610 -579 127 -843 195 -1123 289 -645 218 -1135 529
-1515 961 -64 73 -130 142 -145 152 -40 27 -79 23 -113 -12z m240 -591 c100
-106 199 -188 336 -279 44 -29 83 -58 87 -64 23 -33 -14 -145 -54 -167 -28
-15 -101 23 -230 119 -115 86 -298 265 -322 316 -21 45 -20 85 3 120 19 28 55
55 75 56 4 0 52 -46 105 -101z m1183 -708 c282 -112 556 -191 1101 -316 615
-142 821 -196 1081 -285 433 -148 787 -327 1034 -525 64 -52 72 -62 72 -92 0
-48 -27 -101 -60 -118 -32 -17 -33 -16 -191 91 -410 279 -885 470 -1599 643
-113 27 -338 79 -500 115 -337 75 -527 125 -720 191 -195 67 -442 164 -462
183 -34 29 -14 112 34 146 36 26 81 19 210 -33z"/>
<path d="M3449 6417 c-733 -940 -993 -1268 -1035 -1307 -59 -55 -170 -116
-449 -245 -115 -53 -271 -126 -346 -161 -74 -35 -145 -64 -156 -64 -12 0 -43
17 -70 38 -108 84 -183 112 -302 112 -218 0 -391 -134 -446 -347 -41 -159 11
-332 136 -447 308 -285 805 -41 764 374 -15 151 -14 161 23 187 59 39 190 83
413 139 119 29 236 56 259 60 42 7 43 6 36 -17 -4 -13 -27 -109 -52 -214 -69
-296 -136 -479 -183 -505 -15 -7 -45 -6 -109 5 -110 19 -196 9 -287 -34 -140
-66 -228 -188 -255 -353 -29 -182 74 -375 249 -469 36 -19 69 -42 75 -51 7
-12 4 -47 -12 -125 -29 -142 -30 -137 15 -128 81 15 113 57 113 151 0 77 12
89 117 115 132 33 211 83 274 175 56 82 82 168 83 274 0 118 -22 179 -100 282
-30 39 -54 78 -54 86 0 15 187 422 325 707 45 94 101 193 123 222 23 28 96 94
164 145 145 111 1323 1031 1356 1059 51 44 10 62 -50 22 -111 -75 -1110 -674
-1115 -669 -11 10 12 50 350 606 182 299 333 555 335 567 10 54 -32 11 -189
-190z m-896 -1338 c48 -22 61 -89 26 -133 -16 -21 -29 -26 -64 -26 -35 0 -48
5 -64 26 -59 75 16 172 102 133z m-1320 -432 c71 -32 136 -97 173 -173 25 -50
29 -71 29 -139 0 -71 -4 -88 -33 -147 -40 -82 -111 -149 -190 -178 -75 -29
-194 -24 -264 9 -148 71 -230 231 -198 385 23 111 127 225 241 262 66 21 173
13 242 -19z m758 -755 c70 -34 122 -84 160 -154 32 -60 34 -68 34 -163 0 -89
-3 -105 -27 -150 -36 -68 -101 -128 -173 -162 -50 -23 -74 -27 -140 -28 -71 0
-88 4 -147 33 -74 36 -132 95 -169 170 -19 38 -24 63 -24 137 0 79 4 97 28
147 35 71 119 149 190 177 72 29 202 26 268 -7z"/>
<path d="M1275 6281 c-16 -10 -171 -160 -343 -333 -256 -257 -312 -319 -312
-341 0 -33 32 -67 62 -67 15 0 94 72 257 234 130 129 249 240 265 246 16 6 37
8 46 5 52 -16 44 -26 -221 -294 -160 -161 -259 -268 -257 -278 2 -9 10 -20 18
-26 13 -7 68 44 275 252 142 143 266 261 275 261 9 0 25 -9 36 -21 18 -20 16
-22 -249 -286 -271 -269 -287 -290 -240 -308 13 -4 83 60 278 254 143 143 263
264 267 267 9 9 48 -24 48 -40 0 -6 -117 -128 -260 -271 -190 -189 -260 -265
-258 -280 8 -53 41 -27 303 235 143 143 265 260 271 260 6 0 19 -9 29 -20 19
-21 16 -24 -249 -289 -246 -247 -267 -270 -257 -290 7 -11 17 -21 24 -21 7 0
131 117 275 260 143 143 267 260 275 260 17 0 37 -20 37 -37 0 -7 -117 -131
-260 -275 -143 -145 -260 -268 -260 -275 0 -7 10 -17 22 -24 19 -10 41 9 286
255 145 146 268 266 272 266 10 0 40 -35 40 -47 0 -5 -117 -126 -260 -269
-191 -190 -260 -264 -258 -279 8 -53 41 -28 303 235 143 143 265 260 271 260
6 0 19 -9 29 -20 19 -21 16 -24 -249 -289 -270 -271 -286 -290 -240 -308 12
-4 89 67 285 263 265 265 268 268 289 249 11 -10 20 -23 20 -29 0 -6 -117
-130 -260 -274 -143 -145 -260 -269 -260 -276 0 -14 27 -42 35 -35 2 2 124
123 271 268 277 275 278 276 308 228 9 -14 -21 -49 -189 -217 -109 -109 -197
-202 -194 -205 9 -9 71 16 114 46 22 15 103 91 180 168 77 78 145 141 151 141
6 0 19 -9 30 -21 21 -23 26 -17 -100 -126 -37 -32 -45 -44 -33 -49 20 -7 90
24 147 65 24 17 48 31 54 31 6 0 34 11 63 24 65 31 143 101 143 130 0 15 -159
180 -528 549 -574 573 -548 552 -617 508z"/>
<path d="M2693 4886 c-15 -13 -49 -59 -76 -103 -48 -81 -181 -362 -174 -369 2
-2 25 5 52 17 63 28 160 24 226 -10 101 -51 239 -204 352 -393 26 -43 112
-209 192 -369 166 -332 209 -402 275 -437 40 -21 55 -23 135 -20 153 7 291 68
412 183 108 103 168 24 -619 813 -592 592 -717 712 -742 712 -2 0 -17 -11 -33
-24z"/>
<path d="M2115 4648 c-59 -21 -132 -78 -213 -168 -67 -74 -81 -95 -71 -106 6
-8 16 -14 21 -14 11 0 308 282 308 292 0 10 -7 9 -45 -4z"/>
<path d="M1805 4571 c-68 -42 -96 -101 -52 -109 19 -4 158 108 151 120 -9 15
-69 8 -99 -11z"/>
<path d="M2047 4390 c-74 -76 -87 -94 -87 -123 0 -18 5 -38 12 -45 18 -18 82
-15 101 6 15 16 72 240 64 248 -2 2 -43 -36 -90 -86z"/>
</g>
</svg>
