<?xml version="1.0" standalone="no"?>
<!DOCTYPE svg PUBLIC "-//W3C//DTD SVG 20010904//EN"
 "http://www.w3.org/TR/2001/REC-SVG-20010904/DTD/svg10.dtd">
<svg version="1.0" xmlns="http://www.w3.org/2000/svg"
 width="433.000000pt" height="444.000000pt" viewBox="0 0 433.000000 444.000000"
 preserveAspectRatio="xMidYMid meet">

<g transform="translate(0.000000,444.000000) scale(0.100000,-0.100000)"
fill="#000000" stroke="none">
<path d="M1064 4285 c-42 -29 -101 -193 -76 -209 5 -3 19 15 31 39 12 25 27
47 32 51 5 3 30 -13 54 -35 25 -23 49 -41 53 -41 5 0 25 -13 45 -29 20 -15 62
-41 94 -57 31 -16 69 -39 82 -51 44 -39 54 -28 25 28 -14 28 -23 57 -20 64 2
7 -6 23 -20 36 -13 12 -24 28 -24 35 0 7 -7 17 -15 22 -17 9 -84 67 -145 125
-43 40 -80 48 -116 22z m117 -72 c13 -16 12 -17 -3 -4 -10 7 -18 15 -18 17 0
8 8 3 21 -13z"/>
<path d="M1025 3920 c4 -25 11 -72 16 -105 12 -83 11 -198 -2 -252 -10 -37
-18 -48 -45 -59 -47 -20 -74 -18 -130 11 -60 31 -60 31 -40 0 l17 -26 -51 27
c-61 32 -74 26 -30 -14 44 -41 151 -80 237 -88 68 -6 72 -8 62 -26 -15 -27 4
-47 26 -28 8 7 18 10 21 7 7 -6 -45 -56 -58 -57 -5 0 -8 -10 -8 -22 0 -22 0
-22 28 3 63 57 67 57 38 2 -33 -65 -33 -87 -1 -48 14 17 25 24 25 16 0 -10 10
-5 29 13 l30 29 5 -27 c4 -14 8 -37 11 -51 7 -35 25 -31 25 4 0 37 15 48 25
18 6 -19 8 -17 19 18 8 26 17 39 27 37 9 -1 21 9 29 22 16 30 6 76 -17 76 -15
0 -15 2 2 13 10 8 15 19 11 25 -10 16 -1 15 69 -7 32 -10 61 -24 63 -30 4 -12
22 -5 22 9 0 13 -136 75 -240 111 -132 46 -185 90 -149 126 5 5 11 21 13 34 1
14 6 30 10 37 4 7 -2 29 -13 50 -11 20 -24 64 -29 97 -6 48 -11 60 -25 59 -9
-1 -15 1 -13 5 3 4 0 13 -5 21 -8 11 -9 2 -4 -30z m115 -435 c-1 -12 -41 -7
-55 6 -5 6 3 8 23 6 18 -1 32 -7 32 -12z m115 -5 c4 -6 -8 -10 -29 -10 -20 0
-36 5 -36 10 0 6 13 10 29 10 17 0 33 -4 36 -10z"/>
<path d="M2222 3878 c-5 -7 -16 -32 -23 -56 l-12 -42 -22 20 c-30 28 -38 25
-20 -9 16 -33 82 -88 92 -77 3 3 12 1 20 -6 8 -6 40 -10 71 -9 31 1 95 -5 142
-14 47 -8 114 -15 150 -15 86 0 432 -45 496 -65 28 -8 63 -24 77 -35 14 -11
28 -20 31 -20 21 0 246 -165 266 -195 27 -41 125 -153 138 -159 6 -3 -4 25
-25 62 -20 37 -52 96 -72 132 -19 36 -45 77 -57 92 -12 16 -25 36 -29 46 -3
11 -17 24 -30 30 -14 7 -33 28 -43 49 -38 82 -125 137 -285 178 -54 14 -114
32 -134 40 -19 8 -53 15 -74 15 -22 0 -39 5 -39 11 0 10 -148 8 -318 -5 -62
-4 -63 -4 -46 15 16 18 16 19 -12 19 -16 0 -56 -12 -89 -25 -74 -31 -74 -31
-45 0 42 44 -5 30 -57 -17 l-46 -43 6 48 c7 50 6 54 -11 35z"/>
<path d="M2910 3415 c14 -15 57 -49 95 -76 102 -70 105 -74 105 -104 0 -24 -3
-26 -25 -21 -23 6 -24 5 -14 -24 6 -16 15 -33 20 -36 15 -9 10 -24 -7 -24 -11
0 -13 -6 -9 -19 6 -19 -17 -51 -36 -51 -5 0 -32 11 -59 25 -54 27 -71 32 -52
13 14 -14 -12 -37 -42 -38 -14 0 -16 -3 -7 -13 8 -11 4 -13 -22 -9 -54 6 -64
11 -47 23 11 8 9 9 -9 4 -14 -4 -21 -3 -18 3 6 8 -197 61 -293 76 -19 3 -62
12 -96 19 -58 13 -174 12 -174 -2 0 -3 23 -18 50 -33 50 -28 64 -48 33 -48
-13 0 -12 -4 6 -19 16 -14 18 -21 9 -25 -14 -6 49 1 92 11 l25 6 -25 -20 c-14
-11 -32 -23 -40 -26 -8 -4 5 -4 30 -1 54 7 44 -7 -16 -24 -23 -7 -47 -19 -54
-27 -16 -19 -12 -19 36 0 38 15 38 15 18 -2 -11 -10 -31 -26 -45 -36 -14 -10
-3 -7 27 7 39 19 60 23 93 19 42 -6 43 -6 20 -19 -32 -18 -52 -18 -45 1 3 8 1
15 -5 15 -7 0 -9 -10 -5 -26 4 -16 2 -32 -6 -42 -11 -13 -11 -15 2 -8 8 4 -2
-8 -23 -26 -55 -49 -46 -64 15 -23 74 49 98 45 62 -11 -22 -32 -8 -46 15 -15
23 30 58 23 41 -8 -17 -32 -11 -48 8 -18 9 15 25 27 34 27 20 0 24 -15 8 -25
-13 -8 -43 -66 -37 -71 3 -3 15 11 27 30 19 33 47 46 62 30 4 -3 -3 -26 -14
-50 -28 -64 -18 -77 20 -26 18 24 27 40 20 36 -7 -4 1 6 19 24 17 18 35 32 39
32 3 0 3 -36 0 -81 -5 -57 -4 -79 3 -74 6 3 11 16 12 28 0 21 1 21 9 2 6 -15
9 -9 9 27 1 55 9 78 26 78 8 0 15 -21 20 -58 10 -88 25 -100 25 -19 0 49 4 67
13 67 16 0 37 -41 37 -70 0 -11 3 -20 8 -20 4 0 5 28 4 61 -4 68 8 73 28 13 9
-27 15 -33 21 -23 6 10 9 5 10 -16 2 -30 2 -30 8 4 8 46 28 50 45 10 11 -27
15 -29 18 -13 4 16 7 15 18 -11 10 -22 14 -26 17 -13 2 9 -1 27 -7 38 -10 19
-9 20 7 12 26 -13 196 -15 188 -2 -3 5 -14 10 -23 10 -13 0 -12 5 8 20 l25 20
-27 0 c-37 0 -36 15 2 29 17 5 30 14 30 19 0 5 11 14 25 20 14 6 25 17 25 24
0 17 81 70 177 116 82 39 83 50 3 33 -28 -6 -71 -11 -96 -11 -39 0 -49 5 -84
42 -22 24 -40 46 -40 50 0 5 14 14 31 21 l32 13 -63 72 c-35 39 -69 72 -77 72
-8 0 -24 10 -37 23 -13 13 -38 30 -56 37 -18 8 -65 34 -104 60 -99 64 -104 67
-76 35z m310 -265 c0 -33 -3 -40 -19 -40 -27 0 -33 14 -16 36 17 22 19 38 5
29 -5 -3 -10 -1 -10 4 0 6 9 11 20 11 17 0 20 -7 20 -40z m-580 -288 c30 -11
63 -23 73 -26 10 -3 15 -11 12 -16 -4 -6 -15 -8 -25 -5 -12 4 -22 0 -28 -11
-7 -12 -11 -13 -17 -4 -4 7 -2 16 6 21 11 6 10 9 -4 15 -10 4 -23 2 -30 -5
-16 -16 -30 -14 -23 4 6 18 -29 41 -39 25 -3 -5 -11 -10 -18 -10 -8 0 -8 3 1
12 13 13 16 29 5 27 -5 -1 -16 -1 -27 0 -16 1 -17 3 -5 18 13 15 12 15 -8 5
-33 -18 -38 -14 -12 7 24 20 24 20 54 -8 17 -15 55 -37 85 -49z"/>
<path d="M1176 2357 c-17 -13 -17 -14 -1 -30 18 -18 37 -19 130 -8 64 8 89 0
130 -45 21 -24 72 -37 81 -22 7 12 -17 31 -81 65 -94 49 -220 69 -259 40z"/>
<path d="M939 1967 c-18 -12 -39 -34 -46 -47 -18 -36 -15 -117 7 -180 27 -77
26 -114 -5 -134 -27 -18 -75 -105 -95 -172 -22 -74 16 -145 116 -216 33 -23
61 -43 63 -44 2 -2 -13 -43 -34 -91 -20 -48 -50 -121 -67 -160 -17 -41 -37
-73 -44 -73 -18 0 -56 -60 -49 -78 2 -7 -6 -17 -19 -21 -19 -8 -66 -89 -66
-115 0 -3 -27 -72 -60 -152 -34 -81 -59 -148 -57 -150 2 -2 66 -29 143 -60 76
-30 154 -64 172 -74 18 -11 35 -20 37 -20 8 0 62 113 100 210 20 52 45 113 54
135 29 65 30 73 16 85 -15 12 -11 35 4 25 13 -7 40 72 29 83 -9 9 21 93 107
293 l37 86 51 7 c29 3 73 6 98 6 25 0 59 4 75 9 16 5 54 14 84 21 30 7 69 19
85 26 17 7 67 21 113 30 48 11 82 23 82 30 0 13 -92 108 -277 284 -66 63 -138
142 -159 176 -55 84 -73 105 -120 137 -44 30 -76 33 -152 16 -80 -19 -96 -10
-139 76 -20 41 -40 75 -43 75 -4 0 -22 -10 -41 -23z m442 -312 c11 -25 19 -58
17 -73 l-4 -27 -7 30 c-4 17 -17 47 -27 67 -23 42 -24 48 -9 48 5 0 19 -20 30
-45z m-176 -55 c9 -14 -21 -60 -39 -60 -20 0 -45 33 -52 69 -4 18 -13 35 -20
38 -8 3 -14 9 -14 14 0 11 116 -46 125 -61z m97 26 c3 -13 -8 -57 -25 -98 -16
-40 -37 -93 -47 -118 -10 -25 -24 -45 -31 -45 -8 0 -23 -27 -35 -60 -19 -55
-122 -303 -181 -437 -14 -32 -29 -58 -33 -58 -12 0 -70 22 -70 26 0 2 25 64
56 137 31 72 76 181 100 242 25 60 50 116 57 124 10 12 9 14 -8 7 -16 -6 -15
-3 5 17 14 13 31 21 38 19 8 -3 10 2 6 12 -4 10 7 43 24 79 32 64 116 177 131
177 5 0 11 -11 13 -24z m108 -111 c35 -18 39 -35 10 -35 -12 0 -24 -10 -30
-22 -9 -23 -9 -23 -10 2 -1 16 -8 3 -19 -35 -23 -80 -38 -106 -57 -98 -8 3
-14 8 -12 12 2 4 19 48 38 99 19 51 38 92 43 92 4 0 21 -7 37 -15z m-523 -737
c-7 -23 -18 -43 -24 -45 -9 -3 -8 9 3 41 20 58 37 61 21 4z"/>
</g>
</svg>
