<?xml version="1.0" standalone="no"?>
<!DOCTYPE svg PUBLIC "-//W3C//DTD SVG 20010904//EN"
 "http://www.w3.org/TR/2001/REC-SVG-20010904/DTD/svg10.dtd">
<svg version="1.0" xmlns="http://www.w3.org/2000/svg"
 width="222.000000pt" height="198.000000pt" viewBox="0 0 222.000000 198.000000"
 preserveAspectRatio="xMidYMid meet">

<g transform="translate(0.000000,198.000000) scale(0.100000,-0.100000)"
fill="#000000" stroke="none">
<path d="M1205 1616 c-29 -21 -32 -119 -6 -195 18 -53 20 -68 10 -106 -12 -49
-7 -75 14 -75 17 0 35 37 43 90 5 29 0 57 -16 101 -18 51 -21 73 -15 124 7 67
-1 83 -30 61z"/>
<path d="M833 1603 c-6 -2 -17 -28 -24 -57 -10 -48 -9 -62 11 -127 16 -53 20
-85 15 -114 -11 -71 -11 -79 8 -83 41 -8 61 121 31 199 -13 30 -15 57 -10 109
6 68 0 84 -31 73z"/>
<path d="M1510 1534 c-15 -38 -12 -130 5 -171 16 -38 19 -105 6 -138 -11 -27
-3 -45 19 -45 40 0 57 110 28 192 -16 48 -19 72 -13 124 6 61 5 64 -14 64 -14
0 -25 -9 -31 -26z"/>
<path d="M345 1196 c-16 -7 -38 -23 -48 -34 -20 -22 -33 -91 -23 -117 5 -15 9
-14 33 5 38 30 85 48 144 56 27 4 49 12 49 18 0 22 -33 58 -66 72 -40 17 -51
17 -89 0z"/>
<path d="M851 1087 c-61 -13 -85 -38 -61 -61 14 -14 51 -12 146 9 45 10 36 66
-10 64 -11 0 -45 -6 -75 -12z"/>
<path d="M1113 1084 c-16 -7 -17 -40 -2 -50 18 -11 142 -32 155 -27 18 7 26
34 14 48 -14 17 -144 39 -167 29z"/>
<path d="M415 1069 c-87 -21 -139 -81 -139 -161 0 -169 278 -264 404 -138 66
66 61 151 -12 227 -57 58 -171 91 -253 72z"/>
<path d="M1414 1015 c-15 -38 16 -52 131 -58 38 -2 40 -1 40 28 0 25 -5 31
-30 36 -60 13 -135 10 -141 -6z"/>
<path d="M935 1000 c-74 -9 -166 -28 -182 -38 -9 -6 -9 -18 -1 -50 8 -32 8
-54 -1 -84 -10 -33 -10 -43 2 -56 31 -36 47 -83 47 -140 0 -45 5 -63 20 -80
21 -22 22 -22 435 -22 l415 0 0 65 0 65 -345 2 c-222 2 -345 7 -345 13 0 6
124 11 345 13 l346 2 -3 113 -3 112 -95 7 c-52 4 -167 21 -255 38 -142 27
-301 51 -315 48 -3 0 -32 -4 -65 -8z"/>
<path d="M1791 960 c-41 -11 -78 -26 -83 -33 -4 -6 -8 -94 -8 -193 0 -143 3
-184 14 -193 9 -8 51 -11 122 -9 l109 3 0 220 0 220 -40 2 c-22 1 -73 -7 -114
-17z"/>
<path d="M220 841 c-5 -11 -10 -73 -10 -139 0 -177 -18 -166 274 -172 319 -7
318 -23 -2 -30 -291 -6 -275 2 -270 -132 3 -75 6 -91 26 -110 l23 -23 831 -3
c620 -2 834 1 845 9 10 9 13 39 11 133 l-3 121 -562 5 -562 5 -22 22 c-18 18
-24 38 -28 100 -4 51 -13 88 -25 106 -17 26 -20 27 -40 12 -91 -66 -192 -82
-289 -45 -69 26 -121 68 -148 122 -22 43 -33 47 -49 19z"/>
</g>
</svg>
