<?xml version="1.0" standalone="no"?>
<!DOCTYPE svg PUBLIC "-//W3C//DTD SVG 20010904//EN"
 "http://www.w3.org/TR/2001/REC-SVG-20010904/DTD/svg10.dtd">
<svg version="1.0" xmlns="http://www.w3.org/2000/svg"
 width="365.000000pt" height="365.000000pt" viewBox="0 0 365.000000 365.000000"
 preserveAspectRatio="xMidYMid meet">

<g transform="translate(0.000000,365.000000) scale(0.100000,-0.100000)"
fill="#000000" stroke="none">
<path d="M2427 2904 c-4 -4 -7 -83 -7 -175 0 -160 1 -169 23 -194 12 -14 42
-31 67 -38 l45 -13 7 -159 c10 -224 10 -243 -8 -305 -22 -77 -49 -126 -100
-180 -63 -68 -61 -95 12 -154 93 -76 145 -62 188 51 53 143 85 336 93 559 l4
131 49 -5 c42 -4 52 -1 73 20 21 21 25 37 31 120 6 87 2 219 -10 276 -5 26
-39 30 -48 6 -3 -9 -6 -89 -6 -179 0 -124 -3 -165 -13 -174 -10 -8 -51 0 -163
32 -82 23 -155 46 -161 50 -9 6 -13 42 -14 120 -1 162 -9 211 -34 215 -12 2
-24 0 -28 -4z m244 -454 c17 -10 19 -22 19 -123 0 -120 -11 -156 -44 -144 -14
5 -16 25 -16 142 0 139 2 145 41 125z m-15 -412 c-12 -125 -65 -314 -94 -332
-6 -3 -25 6 -44 21 -18 15 -34 28 -36 29 -2 1 19 31 46 67 52 68 81 133 102
230 19 82 34 73 26 -15z"/>
<path d="M1722 2154 c-24 -8 -80 -37 -125 -64 -85 -51 -128 -83 -581 -445
l-275 -220 0 -50 c-1 -27 3 -45 7 -39 8 13 484 396 486 392 37 -87 80 -118
165 -118 76 0 124 26 230 126 87 82 91 84 91 57 0 -15 -8 -41 -19 -58 -10 -16
-230 -199 -489 -405 l-471 -375 0 -43 c-1 -34 2 -41 13 -35 7 4 206 163 442
353 236 190 432 347 436 348 5 2 8 -6 8 -17 0 -12 16 -39 36 -60 57 -63 153
-73 247 -24 17 8 77 60 133 115 89 86 103 97 109 79 8 -27 -10 -92 -37 -126
-12 -15 -188 -161 -392 -324 -204 -164 -422 -339 -484 -389 l-114 -92 54 0 53
0 293 236 c161 130 294 234 296 232 1 -1 9 -20 19 -41 32 -71 123 -101 219
-73 40 12 74 34 141 91 72 63 88 73 94 59 8 -22 -12 -99 -34 -128 -9 -12 -91
-80 -181 -151 -90 -72 -189 -151 -219 -177 l-54 -48 53 0 53 1 195 157 c170
137 199 164 223 212 27 51 28 61 24 139 l-5 84 46 56 c53 66 92 144 92 187 0
17 -9 43 -21 58 -29 37 -93 36 -177 -4 -35 -17 -66 -30 -68 -30 -2 0 -4 22 -4
49 0 27 -5 62 -10 76 -8 22 -5 33 19 68 69 102 82 170 41 215 -52 56 -203 2
-388 -138 -52 -38 -95 -70 -97 -70 -1 0 -5 21 -9 46 -5 40 -2 51 23 87 45 66
61 103 61 141 0 48 -8 65 -41 81 -35 18 -52 18 -107 -1z m83 -65 c12 -18 -43
-112 -114 -195 -88 -102 -205 -202 -252 -214 -73 -20 -125 8 -135 71 -5 33 -2
36 103 119 130 103 161 126 233 169 87 53 152 73 165 50z m429 -156 c-3 -49
-67 -137 -199 -269 -132 -132 -182 -162 -252 -151 -48 8 -73 35 -79 83 l-5 39
107 85 c159 126 220 168 309 211 96 47 121 48 119 2z m196 -366 c0 -20 -13
-52 -36 -87 -51 -77 -272 -296 -317 -315 -85 -35 -162 -7 -173 65 -6 35 -4 36
111 128 144 115 274 201 340 224 69 24 75 23 75 -15z"/>
</g>
</svg>
