<?xml version="1.0" standalone="no"?>
<!DOCTYPE svg PUBLIC "-//W3C//DTD SVG 20010904//EN"
 "http://www.w3.org/TR/2001/REC-SVG-20010904/DTD/svg10.dtd">
<svg version="1.0" xmlns="http://www.w3.org/2000/svg"
 width="261.000000pt" height="203.000000pt" viewBox="0 0 261.000000 203.000000"
 preserveAspectRatio="xMidYMid meet">

<g transform="translate(0.000000,203.000000) scale(0.100000,-0.100000)"
fill="#000000" stroke="none">
<path d="M1135 1726 c-117 -37 -219 -116 -289 -221 -30 -45 -32 -55 -11 -55 8
0 27 19 43 43 208 301 647 298 844 -7 61 -95 78 -165 78 -327 l0 -139 -76 0
c-74 0 -76 1 -70 23 4 12 9 45 12 72 5 42 2 56 -18 85 -26 39 -74 66 -131 75
-30 5 -40 12 -51 38 -20 49 -78 95 -129 102 -76 12 -164 -43 -190 -117 -4 -11
-22 -19 -52 -23 -53 -8 -104 -40 -122 -75 -15 -30 -17 -118 -3 -154 l10 -26
-119 0 c-158 0 -151 9 -151 -196 0 -87 5 -166 10 -174 7 -11 35 -16 107 -20
l98 -5 3 -95 c4 -139 -22 -130 356 -130 234 0 316 3 329 13 13 9 17 33 19 112
l3 100 118 5 c90 4 120 9 127 20 5 8 10 88 10 177 0 158 -1 162 -24 180 -22
18 -23 26 -28 163 -4 122 -9 157 -31 219 -60 172 -199 301 -372 346 -88 22
-215 19 -300 -9z m250 -366 c72 -45 82 -145 21 -206 -89 -89 -226 -29 -226 99
0 44 4 53 39 88 34 34 44 39 86 39 30 0 60 -7 80 -20z m-240 -147 c19 -79 87
-133 166 -133 79 0 151 56 165 129 7 33 7 33 53 27 86 -11 124 -88 90 -185
l-11 -31 -294 0 -295 0 -15 35 c-38 93 -3 164 91 185 38 8 41 6 50 -27z m703
-237 c17 -10 16 -288 0 -304 -17 -17 -1079 -17 -1096 0 -8 8 -12 57 -12 155 0
125 2 143 18 152 19 12 1071 9 1090 -3z m-248 -440 c0 -76 -3 -95 -16 -100 -9
-3 -147 -6 -308 -6 -214 0 -295 3 -304 12 -8 8 -12 45 -12 100 l0 88 320 0
320 0 0 -94z"/>
<path d="M1284 1597 c-3 -8 -4 -36 -2 -63 2 -36 7 -49 18 -49 20 0 22 116 3
122 -7 3 -16 -2 -19 -10z"/>
<path d="M1094 1549 c-7 -12 64 -89 83 -89 24 0 14 25 -25 63 -41 40 -47 43
-58 26z"/>
<path d="M1460 1524 c-40 -36 -52 -64 -27 -64 16 0 87 72 87 88 0 21 -19 13
-60 -24z"/>
</g>
</svg>
