<?xml version="1.0" standalone="no"?>
<!DOCTYPE svg PUBLIC "-//W3C//DTD SVG 20010904//EN"
 "http://www.w3.org/TR/2001/REC-SVG-20010904/DTD/svg10.dtd">
<svg version="1.0" xmlns="http://www.w3.org/2000/svg"
 width="512.000000pt" height="512.000000pt" viewBox="0 0 512.000000 512.000000"
 preserveAspectRatio="xMidYMid meet">

<g transform="translate(0.000000,512.000000) scale(0.100000,-0.100000)"
fill="#000000" stroke="none">
<path d="M263 5079 c-17 -5 -43 -23 -57 -40 l-26 -31 0 -284 c0 -235 3 -290
15 -314 32 -62 11 -60 722 -60 l648 -1 -75 -67 c-41 -37 -97 -88 -125 -114
l-50 -47 -3 -273 c-4 -304 1 -334 50 -370 27 -19 48 -23 129 -26 l96 -4 7 -61
c17 -168 -1 -311 -53 -423 -41 -87 -76 -136 -177 -245 -268 -291 -420 -671
-449 -1124 -12 -175 19 -530 66 -775 44 -226 154 -591 215 -711 43 -85 -63
-79 1362 -78 947 0 1266 3 1292 12 46 16 68 52 123 203 74 202 89 262 74 293
-17 36 -61 50 -95 30 -23 -12 -36 -42 -87 -189 -33 -96 -64 -181 -68 -187 -6
-10 -135 -13 -588 -13 l-579 0 0 483 0 483 36 17 c35 17 207 120 942 566 211
128 386 230 388 228 3 -3 14 -48 25 -102 49 -242 42 -563 -22 -967 -15 -90 -5
-124 37 -134 44 -11 77 7 91 49 34 101 73 482 73 703 0 478 -166 911 -476
1244 -127 137 -182 243 -204 402 -10 66 -6 217 6 276 l4 22 525 0 524 0 37
-25 c34 -23 45 -25 163 -25 144 0 181 12 213 71 16 31 18 63 18 352 0 345 -1
353 -56 396 -24 19 -40 21 -169 21 -135 0 -144 -1 -179 -25 l-37 -25 -863 2
-864 3 115 99 c72 62 120 111 129 132 11 26 14 93 14 295 0 285 -4 309 -58
346 -26 17 -78 18 -947 20 -992 3 -957 5 -983 -50 -11 -22 -10 -31 2 -55 8
-16 23 -32 31 -36 9 -3 419 -6 911 -6 l894 0 0 -225 0 -226 -157 3 -158 3 -3
152 c-2 150 -3 152 -29 172 -30 24 -61 27 -89 7 -17 -13 -20 -31 -24 -173 l-5
-158 -156 -3 -156 -2 -6 67 c-6 75 -27 103 -76 103 -47 0 -71 -37 -71 -108 l0
-62 -160 0 -160 0 0 150 c0 147 -1 152 -25 175 -29 30 -64 32 -96 6 -23 -18
-24 -25 -27 -175 l-3 -157 -157 3 -157 3 -5 68 c-5 75 -21 97 -70 97 -49 0
-65 -22 -70 -97 l-5 -68 -157 -3 -157 -3 -3 157 c-3 150 -4 157 -27 175 -32
26 -67 24 -96 -6 -24 -23 -25 -28 -25 -175 l0 -151 -147 3 -148 3 -3 223 -2
222 278 0 c278 0 279 0 300 23 28 30 29 78 1 103 -20 18 -41 19 -313 21 -160
1 -305 -3 -323 -8z m2482 -775 c-27 -25 -69 -61 -91 -80 l-41 -34 -499 2 -498
3 88 78 89 77 501 0 501 -1 -50 -45z m2115 -479 l0 -275 -80 0 -80 0 0 275 0
275 80 0 80 0 0 -275z m-310 0 l0 -225 -149 0 -150 0 -3 149 c-3 130 -5 152
-22 170 -25 27 -79 28 -106 1 -18 -18 -20 -33 -20 -170 l0 -150 -160 0 -160 0
0 59 c0 66 -17 96 -61 106 -19 5 -34 0 -54 -18 -24 -20 -29 -33 -33 -85 l-4
-62 -159 0 -159 0 0 152 c0 174 -5 188 -71 188 -62 0 -69 -19 -69 -192 l0
-148 -160 0 -160 0 0 50 c0 62 -15 96 -50 110 -22 9 -34 8 -58 -4 -33 -17 -42
-39 -42 -108 l0 -48 -160 0 -160 0 0 150 c0 137 -2 152 -20 170 -24 24 -77 26
-102 3 -16 -14 -18 -34 -18 -170 l0 -153 -165 0 -165 0 0 64 c0 58 -3 67 -27
86 -19 15 -35 19 -53 15 -43 -10 -60 -41 -60 -106 l0 -59 -155 0 -155 0 0 225
0 225 1545 0 1545 0 0 -225z m-1178 -518 c-9 -283 57 -458 248 -662 41 -44 90
-99 108 -121 l32 -42 -28 -7 c-516 -131 -1058 -189 -1448 -154 -186 16 -200
16 -224 -6 -26 -24 -26 -76 0 -100 26 -24 74 -31 310 -46 362 -23 784 23 1293
141 l172 40 17 -22 c16 -22 80 -162 91 -203 6 -17 -80 -72 -671 -430 -558
-337 -683 -409 -713 -409 -38 -1 0 -23 -1062 620 -319 192 -329 199 -323 225
8 40 93 219 104 219 5 0 63 -13 128 -29 65 -16 181 -42 257 -57 l138 -27 27
20 c33 25 40 71 15 101 -14 17 -48 28 -164 51 -138 28 -310 69 -317 76 -5 5
85 113 159 191 122 130 197 291 219 468 10 79 7 222 -6 284 l-4 22 823 0 823
0 -4 -143z m-1576 -1753 c351 -212 649 -391 661 -397 l23 -10 0 -484 0 -483
-579 0 -580 0 -29 77 c-76 199 -136 414 -176 633 -41 228 -51 342 -51 600 1
217 3 257 23 349 13 58 25 108 28 113 7 11 -45 41 680 -398z"/>
<path d="M2516 2679 c-51 -40 -25 -119 40 -119 35 0 47 8 63 37 17 33 14 51
-14 78 -30 30 -54 31 -89 4z"/>
<path d="M649 3391 l-29 -29 0 -136 0 -135 -281 -3 -281 -3 -24 -28 c-41 -48
-33 -83 37 -166 53 -63 59 -74 47 -89 -7 -9 -37 -45 -66 -80 -62 -75 -68 -108
-23 -153 l29 -29 281 0 281 0 0 -130 c0 -73 5 -140 11 -153 15 -34 48 -49 94
-45 38 3 47 12 272 277 246 290 259 311 230 367 -16 31 -424 517 -459 547 -32
27 -85 22 -119 -12z m266 -383 c76 -90 144 -170 152 -179 12 -15 -3 -37 -133
-190 -81 -96 -151 -178 -155 -183 -5 -6 -9 151 -9 352 0 199 2 362 4 362 2 0
66 -73 141 -162z m-295 -198 l0 -130 -200 0 c-110 0 -200 3 -200 6 0 3 16 26
35 51 50 65 47 112 -13 176 l-26 27 202 0 202 0 0 -130z"/>
<path d="M4352 3403 c-35 -30 -443 -516 -459 -547 -29 -56 -16 -77 230 -367
225 -265 234 -274 272 -277 46 -4 79 11 94 45 6 13 11 80 11 153 l0 130 281 0
281 0 29 29 c45 45 39 78 -23 153 -29 35 -59 71 -66 80 -12 15 -6 26 47 89 70
83 78 118 37 166 l-24 28 -281 3 -281 3 0 135 0 136 -29 29 c-34 34 -87 39
-119 12z m-4 -772 l-3 -179 -153 180 c-134 159 -151 183 -139 197 8 9 76 90
153 180 l139 164 3 -181 c1 -100 1 -263 0 -361z m530 282 c-60 -64 -63 -111
-13 -176 19 -25 35 -48 35 -51 0 -3 -90 -6 -200 -6 l-200 0 0 130 0 130 202 0
202 0 -26 -27z"/>
</g>
</svg>
